<svg width="500" height="500" viewBox="0 0 500 500" fill="none" xmlns="http://www.w3.org/2000/svg">
<path d="M255.46 0H233.904V382.398H255.46V0Z" fill="#F5F5F5"/>
<path d="M255.459 382.398H258.486L258.486 0.000427246H255.459L255.459 382.398Z" fill="#E0E0E0"/>
<path d="M139.167 343.883H25.5C25.5 336.887 31.171 331.216 38.167 331.216H139.167V343.883Z" fill="#E6E6E6"/>
<path d="M147.501 343.883H97.834C97.834 336.887 103.505 331.216 110.501 331.216H147.501V343.883Z" fill="#E0E0E0"/>
<path d="M218.587 343.883H104.92C104.92 336.887 110.591 331.216 117.587 331.216H218.587V343.883Z" fill="#E6E6E6"/>
<path d="M226.92 343.883H177.253C177.253 336.887 182.924 331.216 189.92 331.216H226.92V343.883Z" fill="#E0E0E0"/>
<path d="M379.957 343.883H266.29C266.29 336.887 271.961 331.216 278.957 331.216H379.957V343.883Z" fill="#E6E6E6"/>
<path d="M388.29 343.883H338.623C338.623 336.887 344.294 331.216 351.29 331.216H388.29V343.883Z" fill="#E0E0E0"/>
<path d="M428.42 304.333H378.08L385.167 382.398H421.333L428.42 304.333Z" fill="#EBEBEB"/>
<path d="M402.75 317.348C401.825 285.054 409.384 218.181 422.886 190.977L423.781 191.421C410.817 217.542 402.817 284.755 403.75 317.319L402.75 317.348Z" fill="#EBEBEB"/>
<path d="M407.747 253.758C407.747 253.758 404.444 222.492 392.222 212.898C385.667 232.638 399.089 239.444 407.747 253.758Z" fill="#EBEBEB"/>
<path d="M407.747 254.258C407.576 254.258 407.411 254.17 407.319 254.017C405.066 250.292 402.495 247.09 400.01 243.992C392.935 235.177 386.825 227.563 391.747 212.74C391.798 212.586 391.922 212.466 392.078 212.419C392.233 212.373 392.403 212.404 392.531 212.505C404.778 222.118 408.109 252.42 408.244 253.705C408.269 253.938 408.128 254.157 407.907 254.232C407.854 254.25 407.8 254.258 407.747 254.258ZM392.473 213.751C388.141 227.603 394.011 234.918 400.79 243.366C402.863 245.948 404.994 248.604 406.963 251.585C405.954 244.432 402.097 222.031 392.473 213.751Z" fill="#EBEBEB"/>
<path d="M409.565 241.914C409.565 241.914 422.531 213.004 437.2 207.881C437.017 228.679 422.388 231.171 409.565 241.914Z" fill="#EBEBEB"/>
<path d="M409.565 242.414C409.459 242.414 409.353 242.38 409.263 242.313C409.077 242.172 409.013 241.922 409.109 241.709C409.642 240.521 422.332 212.544 437.035 207.408C437.188 207.354 437.359 207.378 437.491 207.474C437.623 207.569 437.702 207.722 437.7 207.885C437.561 223.673 429.277 229.068 419.684 235.314C416.455 237.416 413.117 239.59 409.886 242.297C409.793 242.375 409.679 242.414 409.565 242.414ZM436.687 208.607C424.87 213.353 414.125 233.693 410.959 240.147C413.687 238.026 416.45 236.227 419.138 234.477C428.339 228.485 436.305 223.299 436.687 208.607Z" fill="#EBEBEB"/>
<path d="M403.539 297.772C403.539 297.772 398.529 254.268 383.357 242.786C375.757 267.097 392.627 280.434 403.539 297.772Z" fill="#EBEBEB"/>
<path d="M403.539 298.384C403.333 298.384 403.135 298.28 403.021 298.098C400.689 294.392 398.046 290.821 395.49 287.366C385.834 274.315 376.713 261.988 382.772 242.603C382.832 242.413 382.98 242.263 383.169 242.203C383.361 242.142 383.567 242.177 383.726 242.298C398.932 253.806 403.941 295.915 404.147 297.702C404.18 297.986 404.011 298.255 403.742 298.349C403.675 298.373 403.606 298.384 403.539 298.384ZM383.681 243.828C378.341 262.13 387.153 274.04 396.474 286.638C398.516 289.397 400.612 292.231 402.57 295.157C401.206 285.707 395.818 254.032 383.681 243.828Z" fill="#EBEBEB"/>
<path d="M405.287 274.318C405.287 274.318 422.205 243.335 440.054 236.744C440.28 262.214 420.756 260.887 405.287 274.318Z" fill="#EBEBEB"/>
<path d="M405.287 274.93C405.151 274.93 405.015 274.885 404.903 274.795C404.672 274.609 404.608 274.285 404.749 274.025C405.444 272.752 421.982 242.765 439.842 236.17C440.03 236.101 440.239 236.127 440.402 236.24C440.566 236.353 440.665 236.539 440.667 236.739C440.826 254.628 431.419 259.587 420.527 265.329C415.581 267.936 410.466 270.633 405.689 274.781C405.574 274.88 405.43 274.93 405.287 274.93ZM439.441 237.641C425.486 243.401 412.068 264.11 407.484 271.753C411.583 268.658 415.827 266.422 419.955 264.245C430.308 258.788 439.274 254.06 439.441 237.641Z" fill="#EBEBEB"/>
<path d="M413.255 222.132C413.255 222.132 410.951 200.321 402.425 193.628C397.851 207.399 407.214 212.147 413.255 222.132Z" fill="#EBEBEB"/>
<path d="M413.255 222.481C413.135 222.481 413.021 222.419 412.957 222.313C411.385 219.714 409.592 217.48 407.858 215.319C402.923 209.169 398.66 203.858 402.094 193.518C402.13 193.41 402.216 193.327 402.324 193.294C402.432 193.26 402.551 193.283 402.64 193.354C411.184 200.061 413.507 221.2 413.602 222.096C413.62 222.259 413.521 222.411 413.367 222.463C413.33 222.475 413.292 222.481 413.255 222.481ZM402.599 194.223C399.577 203.887 403.672 208.99 408.401 214.883C409.847 216.685 411.334 218.537 412.708 220.616C412.004 215.627 409.313 199.999 402.599 194.223Z" fill="#EBEBEB"/>
<path d="M417.221 207.444C417.221 207.444 426.266 187.276 436.5 183.702C436.372 198.212 426.167 199.95 417.221 207.444Z" fill="#EBEBEB"/>
<path d="M417.222 207.793C417.148 207.793 417.074 207.77 417.011 207.723C416.882 207.625 416.837 207.45 416.903 207.302C417.275 206.473 426.128 186.956 436.385 183.373C436.493 183.336 436.611 183.353 436.703 183.419C436.795 183.485 436.85 183.592 436.849 183.706C436.752 194.72 430.973 198.483 424.282 202.841C422.03 204.308 419.701 205.824 417.447 207.713C417.381 207.766 417.301 207.793 417.222 207.793ZM436.143 184.209C427.899 187.52 420.403 201.709 418.195 206.211C420.098 204.731 422.026 203.476 423.901 202.255C430.318 198.076 435.875 194.457 436.143 184.209Z" fill="#EBEBEB"/>
<path d="M156.04 194.68C146.533 194.013 142.421 195.124 138.31 186.568C134.199 178.011 119.864 173.432 115.197 180.889C110.53 188.346 108.863 193.533 98.0841 189.106C87.3051 184.679 83.7491 187.902 82.1941 193.791C80.6381 199.68 55.9691 196.841 63.1921 205.261H154.534C154.534 205.261 165.547 195.347 156.04 194.68Z" fill="#F5F5F5"/>
<path d="M438.801 148.967C433.422 148.59 431.096 149.218 428.769 144.377C426.443 139.536 418.332 136.945 415.692 141.164C413.051 145.383 412.108 148.318 406.01 145.813C399.912 143.308 397.9 145.132 397.019 148.464C396.139 151.796 382.181 150.189 386.268 154.954H437.948C437.948 154.954 444.18 149.344 438.801 148.967Z" fill="#F5F5F5"/>
<path d="M374.417 31.718C371.749 27.382 364.121 25.937 357.297 29.309C350.472 32.681 355.121 11.557 342.363 15.098C324.137 20.156 329.213 35.272 321.619 33.885C314.025 32.498 291.765 36.214 303.535 43.762H370.888C370.888 43.762 377.085 36.054 374.417 31.718Z" fill="#F5F5F5"/>
<path d="M250 427.561C357.082 427.561 443.889 422.492 443.889 416.238C443.889 409.985 357.082 404.915 250 404.915C142.918 404.915 56.1108 409.985 56.1108 416.238C56.1108 422.492 142.918 427.561 250 427.561Z" fill="#F5F5F5"/>
<path d="M83.1929 0H81.4639V125.524H83.1929V0Z" fill="#407BFF"/>
<path d="M184.814 0H183.085V125.524H184.814V0Z" fill="#407BFF"/>
<path d="M204.481 78.7891H61.7969V111.248H204.481V78.7891Z" fill="#407BFF"/>
<path opacity="0.3" d="M204.481 78.7891H61.7969V111.248H204.481V78.7891Z" fill="white"/>
<path d="M79.2937 92.5741L75.7567 89.0371H70.8687L75.1237 93.2921H66.5527V96.7461H75.1277L70.8687 100.999H75.7567L79.2937 97.4621L81.7327 95.0131L79.2937 92.5741Z" fill="white"/>
<path opacity="0.7" d="M196.302 90.2778H145.012V99.7588H196.302V90.2778Z" fill="#407BFF"/>
<path opacity="0.7" d="M137.253 90.2778H115.286V99.7588H137.253V90.2778Z" fill="#407BFF"/>
<path d="M107.212 85.3462H87.8647V104.693H107.212V85.3462Z" fill="white"/>
<path d="M105.025 90.2803L104.543 90.2793C104.482 90.2793 104.422 90.2813 104.361 90.2843C104.356 90.2843 104.352 90.2843 104.347 90.2843L104.345 90.2853C103.946 90.3103 103.555 90.4153 103.196 90.5953L100.204 92.0963L94.5789 91.1583C94.1019 91.0973 93.6189 91.1763 93.1859 91.3843L92.6519 91.6413L96.3179 94.2053L92.9089 95.8083L90.6539 95.1573L89.6499 95.6403L92.2939 97.6433L97.8479 94.9713L101.033 93.4383L104.197 91.9163C104.435 91.8013 104.656 91.6563 104.854 91.4853C104.867 91.4743 104.88 91.4633 104.892 91.4523H104.89C105.067 91.2943 105.226 91.1173 105.361 90.9203C105.548 90.6503 105.354 90.2803 105.025 90.2803Z" fill="#263238"/>
<path d="M105.89 100.755H89.188V102.38H105.89V100.755Z" fill="#263238"/>
<path d="M204.481 120.898H61.7969V153.357H204.481V120.898Z" fill="#407BFF"/>
<path opacity="0.3" d="M204.481 120.898H61.7969V153.357H204.481V120.898Z" fill="white"/>
<path d="M68.9927 134.682L72.5297 131.145H77.4177L73.1627 135.401H81.7327V138.854H73.1587L77.4177 143.107H72.5297L68.9927 139.57L66.5527 137.122L68.9927 134.682Z" fill="white"/>
<path opacity="0.7" d="M196.302 132.387H145.012V141.868H196.302V132.387Z" fill="#407BFF"/>
<path opacity="0.7" d="M137.253 132.387H115.286V141.868H137.253V132.387Z" fill="#407BFF"/>
<path d="M107.212 127.454H87.8647V146.801H107.212V127.454Z" fill="white"/>
<path d="M105.025 132.388L104.543 132.387C104.482 132.387 104.422 132.389 104.361 132.392C104.356 132.392 104.352 132.392 104.347 132.392L104.345 132.393C103.946 132.418 103.555 132.523 103.196 132.703L100.204 134.204L94.5789 133.266C94.1019 133.205 93.6189 133.284 93.1859 133.492L92.6519 133.749L96.3179 136.313L92.9089 137.916L90.6539 137.265L89.6499 137.748L92.2939 139.751L97.8479 137.079L101.033 135.546L104.197 134.024C104.435 133.909 104.656 133.764 104.854 133.593C104.867 133.582 104.88 133.571 104.892 133.56H104.89C105.067 133.402 105.226 133.225 105.361 133.028C105.548 132.759 105.354 132.389 105.025 132.388Z" fill="#263238"/>
<path d="M105.89 142.864H89.188V144.489H105.89V142.864Z" fill="#263238"/>
<path d="M327.038 110.527L318.907 105.668L323.64 104.741L336.238 107.239L327.038 110.527Z" fill="#407BFF"/>
<path opacity="0.3" d="M327.038 110.527L318.907 105.668L323.64 104.741L336.238 107.239L327.038 110.527Z" fill="#263238"/>
<path d="M383.284 95.6331L373.387 83.2141L377.047 82.4971C380.017 81.9161 383.091 82.2061 385.9 83.3321L405.037 91.0071L383.284 95.6331Z" fill="#407BFF"/>
<path opacity="0.3" d="M383.284 95.6331L373.387 83.2141L377.047 82.4971C380.017 81.9161 383.091 82.2061 385.9 83.3321L405.037 91.0071L383.284 95.6331Z" fill="#263238"/>
<path d="M435.143 86.7258L432.204 85.9519C429.357 85.2019 426.373 85.1309 423.493 85.7449L326.644 107.709L325.727 111.884L329.507 114.579L427.494 95.3909C430.704 94.7629 433.694 93.3078 436.17 91.1708C437.742 89.8148 437.149 87.2538 435.143 86.7258Z" fill="#407BFF"/>
<path d="M375.901 117.111L333.504 126.123L333.614 126.637L376.01 117.625L375.901 117.111Z" fill="#407BFF"/>
<path d="M370.425 89.8696L342.79 95.7437L342.899 96.2581L370.535 90.3841L370.425 89.8696Z" fill="#407BFF"/>
<path d="M325.588 127.822L314.227 130.236L314.336 130.751L325.697 128.336L325.588 127.822Z" fill="#407BFF"/>
<path opacity="0.3" d="M425.063 93.7498L329.345 114.14C328.896 114.235 328.482 114.395 328.102 114.621C328.56 114.682 329.032 114.669 329.51 114.575L427.491 95.3888C429.098 95.0738 430.65 94.5548 432.107 93.8448C432.225 93.7858 432.35 93.7248 432.468 93.6658C430.026 93.2018 427.507 93.2278 425.063 93.7498Z" fill="#263238"/>
<path d="M325.728 111.883L323.268 122.272L328 121.345L336.614 110.096L325.728 111.883Z" fill="#407BFF"/>
<path d="M326.645 107.708L320.898 97.3181L325.315 96.4531L338.036 105.478L326.645 107.708Z" fill="#407BFF"/>
<path d="M384.143 100.021L382.548 130.001C387.086 129.112 391 126.267 393.245 122.225L408.194 95.311L384.143 100.021Z" fill="#407BFF"/>
<g opacity="0.5">
<path d="M359.258 103.645L358.048 103.894L358.501 106.102L359.711 105.853L359.258 103.645Z" fill="white"/>
<path d="M361.692 103.151L360.482 103.399L360.935 105.607L362.145 105.359L361.692 103.151Z" fill="white"/>
<path d="M364.133 102.651L362.923 102.899L363.376 105.107L364.586 104.859L364.133 102.651Z" fill="white"/>
<path d="M366.575 102.15L365.365 102.398L365.818 104.606L367.028 104.358L366.575 102.15Z" fill="white"/>
<path d="M369.016 101.65L367.806 101.898L368.259 104.106L369.469 103.858L369.016 101.65Z" fill="white"/>
<path d="M371.458 101.149L370.248 101.397L370.701 103.605L371.91 103.357L371.458 101.149Z" fill="white"/>
<path d="M373.9 100.648L372.69 100.896L373.143 103.104L374.352 102.856L373.9 100.648Z" fill="white"/>
<path d="M376.349 100.142L375.139 100.39L375.592 102.598L376.802 102.35L376.349 100.142Z" fill="white"/>
<path d="M378.783 99.647L377.573 99.895L378.025 102.103L379.235 101.855L378.783 99.647Z" fill="white"/>
<path d="M381.223 99.1475L380.014 99.3955L380.466 101.604L381.676 101.356L381.223 99.1475Z" fill="white"/>
<path d="M383.666 98.6402L382.456 98.8882L382.909 101.096L384.118 100.848L383.666 98.6402Z" fill="white"/>
<path d="M386.107 98.1465L384.897 98.3945L385.35 100.603L386.559 100.355L386.107 98.1465Z" fill="white"/>
<path d="M388.556 97.6386L387.347 97.8867L387.8 100.095L389.009 99.8466L388.556 97.6386Z" fill="white"/>
<path d="M390.991 97.1392L389.781 97.3872L390.233 99.5952L391.443 99.3472L390.991 97.1392Z" fill="white"/>
<path d="M393.432 96.6446L392.222 96.8926L392.674 99.1006L393.884 98.8526L393.432 96.6446Z" fill="white"/>
<path d="M395.873 96.1446L394.664 96.3926L395.116 98.6006L396.326 98.3526L395.873 96.1446Z" fill="white"/>
<path d="M398.314 95.6373L397.104 95.8853L397.557 98.0933L398.767 97.8453L398.314 95.6373Z" fill="white"/>
<path d="M400.756 95.1426L399.546 95.3906L399.999 97.5986L401.209 97.3507L400.756 95.1426Z" fill="white"/>
<path d="M403.197 94.6431L401.987 94.8911L402.44 97.0991L403.65 96.8511L403.197 94.6431Z" fill="white"/>
<path d="M405.647 94.1342L404.438 94.3823L404.89 96.5903L406.1 96.3422L405.647 94.1342Z" fill="white"/>
<path d="M408.08 93.6421L406.87 93.8901L407.323 96.0982L408.533 95.8502L408.08 93.6421Z" fill="white"/>
<path d="M410.522 93.1412L409.312 93.3892L409.765 95.5972L410.974 95.3492L410.522 93.1412Z" fill="white"/>
</g>
<path opacity="0.5" d="M435.144 86.7283L432.202 85.9523C431.808 85.8493 431.408 85.7553 431.005 85.6763L426.67 86.5253C426.068 86.6433 425.672 87.2313 425.79 87.8333C425.908 88.4363 426.497 88.8383 427.1 88.7203L435.819 87.0133C435.613 86.8873 435.394 86.7943 435.144 86.7283Z" fill="white"/>
<path d="M278.049 134.892C290.278 161.322 320.256 175.703 289.005 190.309C257.755 204.915 254.667 164.906 255.578 152.718C256.489 140.53 271.441 120.61 278.049 134.892Z" fill="#263238"/>
<path d="M301.335 172.461C301.318 172.461 301.3 172.459 301.282 172.455C301.145 172.426 301.057 172.29 301.086 172.153C302.703 164.551 297.037 158.927 290.477 152.414C285.587 147.56 280.045 142.058 277.12 134.989C275.686 131.523 273.75 130.019 271.373 130.507C264.983 131.828 257.794 146.501 257.926 155.077C257.928 155.218 257.816 155.333 257.675 155.336C257.531 155.328 257.419 155.226 257.416 155.085C257.282 146.342 264.689 131.369 271.27 130.008C273.094 129.63 275.672 130.155 277.591 134.794C280.477 141.768 285.98 147.232 290.836 152.052C297.503 158.67 303.26 164.386 301.585 172.259C301.559 172.379 301.453 172.461 301.335 172.461Z" fill="#263238"/>
<path d="M254.345 144.062C257.421 146.147 262.699 138.111 265.237 127.594C258.889 122.361 255.031 123.174 252.491 127.751C249.527 133.089 250.825 141.675 254.345 144.062Z" fill="#263238"/>
<path d="M243.828 309.697C243.828 309.697 286.741 300.956 317.991 308.275C308.82 294.533 269.932 233.657 269.932 233.657L251.446 255.64L243.828 309.697Z" fill="#407BFF"/>
<path opacity="0.2" d="M243.828 309.697C243.828 309.697 286.741 300.956 317.991 308.275C308.82 294.533 269.932 233.657 269.932 233.657L251.446 255.64L243.828 309.697Z" fill="black"/>
<path d="M257.186 177.333C256.518 180.27 255.769 182.934 254.918 185.692C254.073 188.425 253.139 191.138 252.098 193.838C251.049 196.536 249.927 199.231 248.596 201.905C247.274 204.587 245.826 207.261 243.899 209.938C243.666 210.272 243.418 210.608 243.153 210.945C242.886 211.287 242.677 211.58 242.256 212.054C241.88 212.496 241.499 212.902 241.122 213.246C240.74 213.623 240.36 213.95 239.983 214.248C238.465 215.473 236.965 216.337 235.501 217.099C232.577 218.615 229.708 219.56 226.864 220.407C224.011 221.204 221.182 221.828 218.342 222.292C215.487 222.758 212.705 223.101 209.748 223.244L208.412 216.305C213.355 214.399 218.449 212.453 223.049 210.213C225.347 209.114 227.563 207.898 229.394 206.637C230.302 206.008 231.098 205.336 231.654 204.75C231.803 204.604 231.928 204.464 232.016 204.338C232.137 204.205 232.204 204.091 232.256 203.993L232.598 203.453C232.739 203.236 232.879 203.003 233.016 202.757C234.119 200.837 235.157 198.58 236.11 196.256C237.049 193.918 237.946 191.488 238.771 189.014C239.603 186.54 240.392 184.025 241.15 181.495C241.898 178.989 242.653 176.358 243.324 173.957L257.186 177.333Z" fill="#407BFF"/>
<path d="M209.994 217.285L201.921 217.704L206.499 225.982C206.499 225.982 211.665 224.142 212.934 219.067L209.994 217.285Z" fill="#FFC3BD"/>
<path d="M195.969 222.989L202.501 228.126L206.499 225.982L201.921 217.704L195.969 222.989Z" fill="#FFC3BD"/>
<path d="M276.725 408.69L267.684 409.544L265.822 388.732L274.863 387.877L276.725 408.69Z" fill="#FFC3BD"/>
<path d="M347.588 377.921L341.021 384.087L326.843 368.505L333.41 362.338L347.588 377.921Z" fill="#FFC3BD"/>
<path d="M339.221 382.485L344.156 373.593C344.336 373.269 344.706 373.132 345.047 373.261L352.645 376.153C353.433 376.453 353.775 377.464 353.348 378.203C351.574 381.273 350.563 382.666 348.392 386.577C347.057 388.983 344.457 394.5 342.613 397.823C340.81 401.072 337.386 399.499 337.856 397.95C339.965 391.007 339.568 387.142 338.973 384.078C338.866 383.525 338.959 382.958 339.221 382.485Z" fill="#263238"/>
<path d="M266.483 406.842H277.222C277.613 406.842 277.965 407.113 278.07 407.495L280.405 415.991C280.647 416.872 279.998 417.683 279.095 417.691C275.311 417.725 273.517 417.709 268.794 417.709C265.889 417.709 258.372 417.709 254.36 417.709C250.436 417.709 249.615 413.742 251.239 413.382C258.519 411.771 262.716 409.549 264.962 407.43C265.367 407.048 265.911 406.842 266.483 406.842Z" fill="#263238"/>
<path opacity="0.2" d="M265.824 388.737L266.782 399.465H275.904L274.869 387.882L265.824 388.737Z" fill="black"/>
<path opacity="0.2" d="M333.415 362.341L326.845 368.51L334.157 376.539L340.727 370.37L333.415 362.341Z" fill="black"/>
<path d="M243.142 177.682C243.741 184.48 246.003 197.969 252.759 224.709L289.387 221.541C287.627 207.812 286.8 198.921 290.221 173.011C290.713 169.282 287.943 165.896 284.187 165.689C281.585 165.546 278.509 165.464 275.418 165.582C269.229 165.818 264.162 166.058 258.786 167.021C255.468 167.615 251.908 168.483 249.059 169.237C245.29 170.236 242.8 173.798 243.142 177.682Z" fill="#263238"/>
<path d="M272.151 146.997C271.565 152.439 271.366 162.335 275.419 165.582C275.419 165.582 275.743 171.204 264.323 173.041C256.306 172.358 258.787 167.021 258.787 167.021C264.631 165.08 264.094 160.665 262.695 156.597L272.151 146.997Z" fill="#FFC3BD"/>
<path opacity="0.2" d="M268.296 150.914L262.699 156.593C263.034 157.556 263.314 158.537 263.467 159.501C265.718 158.974 268.977 156.635 269.013 154.227C269.031 153.026 268.538 151.452 268.296 150.914Z" fill="black"/>
<path d="M276.939 138.494C274.669 147.186 273.894 150.914 268.562 154.557C260.542 160.036 250.362 155.347 249.989 146.151C249.653 137.874 253.422 125.049 262.723 123.241C271.886 121.459 279.209 129.802 276.939 138.494Z" fill="#FFC3BD"/>
<path d="M257.923 122.546C254.232 126.254 261.944 135.62 274.739 143.886C284.646 137.885 281.251 129.846 276.72 125.289C272.279 120.82 262.147 118.302 257.923 122.546Z" fill="#263238"/>
<path d="M261.375 132.18C261.31 132.18 261.245 132.155 261.195 132.105C257.115 128.032 255.526 124.943 256.47 122.923C257.861 119.95 264.135 120.486 264.401 120.51C264.541 120.523 264.645 120.647 264.632 120.787C264.619 120.927 264.501 121.029 264.355 121.018C264.293 121.013 258.17 120.49 256.931 123.139C256.099 124.919 257.698 127.894 261.555 131.744C261.655 131.843 261.655 132.005 261.555 132.104C261.506 132.155 261.441 132.18 261.375 132.18Z" fill="#263238"/>
<path d="M277.656 146.341C276.801 147.996 275.262 149.101 273.796 149.542C271.591 150.206 270.444 148.245 271.018 146.14C271.535 144.246 273.305 141.618 275.536 141.876C277.735 142.13 278.634 144.449 277.656 146.341Z" fill="#FFC3BD"/>
<path d="M252.759 224.709C252.759 224.709 242.18 279.491 250.452 318.14C255.993 344.025 263.098 396.355 263.098 396.355L278.721 395.953C278.721 395.953 274.659 341.078 271.532 319.497C266.183 282.582 279.581 222.389 279.581 222.389L252.759 224.709Z" fill="#263238"/>
<path opacity="0.2" d="M267.049 235.779L274.86 248.099C272.873 260.874 270.895 276.854 270.391 292.229C259.405 272.562 264.607 246.191 267.049 235.779Z" fill="black"/>
<path d="M261.723 396.96L280.13 396.91L280.074 390.746L260.582 390.492L261.723 396.96Z" fill="#407BFF"/>
<path d="M260.768 224.126C260.768 224.126 268.038 282.264 283.797 314.005C296.526 339.642 330.492 376.137 330.492 376.137L339.177 367.19C339.177 367.19 316.234 327.527 306.774 310.497C283.577 268.739 302.535 236.873 289.387 221.541L260.768 224.126Z" fill="#263238"/>
<path d="M329.612 377.333L340.819 366.409L337.102 361.35L325.217 373.213L329.612 377.333Z" fill="#407BFF"/>
<path d="M289.75 219.344L291.685 222.48C291.835 222.723 291.556 223.009 291.133 223.045L252.72 226.367C252.39 226.396 252.102 226.257 252.064 226.052L251.45 222.802C251.407 222.577 251.677 222.36 252.038 222.329L289.129 219.121C289.402 219.097 289.653 219.188 289.75 219.344Z" fill="white"/>
<path d="M285.127 223.923L286.12 223.837C286.318 223.82 286.46 223.705 286.435 223.581L285.601 219.362C285.577 219.239 285.395 219.152 285.197 219.169L284.204 219.255C284.006 219.272 283.864 219.387 283.889 219.511L284.723 223.73C284.747 223.853 284.929 223.94 285.127 223.923Z" fill="#263238"/>
<path d="M255.543 226.481L256.536 226.395C256.734 226.378 256.876 226.263 256.851 226.139L256.017 221.92C255.993 221.797 255.811 221.71 255.613 221.727L254.62 221.813C254.422 221.83 254.28 221.945 254.305 222.069L255.139 226.288C255.163 226.411 255.345 226.498 255.543 226.481Z" fill="#263238"/>
<path d="M270.335 225.202L271.328 225.116C271.526 225.099 271.668 224.984 271.643 224.86L270.809 220.641C270.785 220.518 270.603 220.43 270.405 220.448L269.412 220.534C269.214 220.551 269.072 220.666 269.097 220.79L269.931 225.009C269.955 225.132 270.137 225.219 270.335 225.202Z" fill="#263238"/>
<path d="M262.223 138.196C262.082 138.912 261.588 139.419 261.12 139.327C260.652 139.235 260.386 138.579 260.527 137.863C260.668 137.147 261.162 136.64 261.63 136.733C262.099 136.824 262.364 137.48 262.223 138.196Z" fill="#263238"/>
<path d="M254.126 136.604C253.985 137.32 253.491 137.827 253.023 137.734C252.555 137.642 252.289 136.987 252.43 136.27C252.571 135.554 253.065 135.047 253.533 135.14C254.001 135.232 254.266 135.888 254.126 136.604Z" fill="#263238"/>
<path d="M253.732 135.221L252.109 134.387C252.109 134.387 252.727 135.904 253.732 135.221Z" fill="#263238"/>
<path d="M256.909 138.39C256.909 138.39 255.087 141.235 253.456 142.46C254.228 143.529 255.916 143.441 255.916 143.441L256.909 138.39Z" fill="#ED847E"/>
<path d="M259.229 146.857C261.766 146.857 263.24 145.377 263.311 145.304C263.38 145.233 263.378 145.121 263.308 145.052C263.239 144.984 263.126 144.984 263.056 145.055C263.037 145.074 261.112 146.996 257.96 146.374C257.86 146.353 257.77 146.418 257.751 146.514C257.732 146.611 257.795 146.705 257.891 146.723C258.364 146.816 258.811 146.857 259.229 146.857Z" fill="#263238"/>
<path d="M267.088 135.418C267.151 135.418 267.214 135.401 267.272 135.366C267.44 135.264 267.494 135.045 267.392 134.876C266.185 132.879 264.245 132.791 264.163 132.789C263.955 132.797 263.803 132.936 263.796 133.132C263.788 133.328 263.941 133.493 264.138 133.502C264.205 133.505 265.781 133.59 266.782 135.246C266.849 135.357 266.967 135.418 267.088 135.418Z" fill="#263238"/>
<path d="M251.877 132.549C251.936 132.549 251.995 132.534 252.05 132.503C253.755 131.551 255.196 132.288 255.21 132.295C255.385 132.387 255.6 132.319 255.691 132.145C255.782 131.971 255.716 131.755 255.541 131.664C255.468 131.625 253.739 130.742 251.702 131.88C251.53 131.976 251.469 132.193 251.564 132.365C251.631 132.483 251.752 132.549 251.877 132.549Z" fill="#263238"/>
<path d="M274.861 164.561C274.861 164.561 273.364 174.215 273.494 189.954C273.579 200.358 270.934 246.907 285.163 301.595C307.915 301.723 317.992 308.275 317.992 308.275C317.992 308.275 295.93 219.24 293.137 173.219C292.859 168.633 289.219 164.984 284.634 164.696C280.113 164.412 274.861 164.561 274.861 164.561Z" fill="#407BFF"/>
<path d="M297.865 240.399C297.805 240.399 297.743 240.383 297.687 240.35C291.294 236.536 284.751 225.838 284.476 225.385C284.376 225.221 284.429 225.006 284.593 224.907C284.759 224.807 284.971 224.86 285.071 225.024C285.137 225.134 291.801 236.027 298.044 239.753C298.209 239.852 298.263 240.065 298.165 240.23C298.099 240.339 297.983 240.399 297.865 240.399Z" fill="white"/>
<path opacity="0.2" d="M294.394 187.052L287.006 180.571C287.006 180.571 290.236 194.552 296.758 204.671C295.831 198.557 295.016 192.636 294.394 187.052Z" fill="black"/>
<path d="M257.669 166.332C257.669 166.332 256.855 175.97 256.855 200.76C256.855 224.68 259.808 259.135 255.265 302.515C247.905 304.327 243.829 309.697 243.829 309.697C243.829 309.697 249.968 230.941 242.914 177.571C242.305 172.964 245.717 168.783 250.284 167.925C254.723 167.09 257.669 166.332 257.669 166.332Z" fill="#407BFF"/>
<path d="M326.819 237.813L304.784 243.548L306.823 251.381L328.858 245.645L326.819 237.813Z" fill="#407BFF"/>
<path opacity="0.8" d="M328.109 242.775L306.074 248.51L306.441 249.92L328.476 244.185L328.109 242.775Z" fill="white"/>
<path d="M325.836 236.682L306.931 240.638L308.881 249.959L327.786 246.004L325.836 236.682Z" fill="#263238"/>
<path d="M309.423 234.854L307.862 242.786L315.347 240.896C315.347 240.896 315.855 235.441 312.778 233.276L309.423 234.854Z" fill="#FFC3BD"/>
<path d="M309.765 246.921L317.292 246.188L315.346 240.896L307.861 242.786L309.765 246.921Z" fill="#FFC3BD"/>
<path d="M290.388 167.343C292.583 169.608 294.531 171.841 296.506 174.177C298.45 176.514 300.365 178.88 302.182 181.364C304.015 183.839 305.787 186.37 307.456 189.083C308.289 190.455 309.121 191.806 309.877 193.313L310.453 194.419L311.003 195.604L311.543 196.797C311.722 197.188 311.906 197.697 312.081 198.142C312.734 199.938 313.141 201.571 313.475 203.188C313.807 204.797 314.071 206.368 314.292 207.92C314.719 211.024 314.972 214.075 315.146 217.109C315.466 223.187 315.46 229.156 315.025 235.223L307.968 235.597C306.831 229.891 305.763 224.107 304.574 218.488C303.984 215.675 303.346 212.894 302.643 210.21C302.297 208.869 301.918 207.56 301.511 206.315C301.098 205.081 300.665 203.881 300.215 202.941C300.09 202.713 300.018 202.529 299.861 202.264L299.406 201.482L298.95 200.697L298.421 199.887C297.743 198.817 296.945 197.707 296.171 196.609C294.58 194.407 292.811 192.216 291.044 190.022C287.483 185.669 283.631 181.28 279.954 177.071L290.388 167.343Z" fill="#407BFF"/>
<path d="M337.49 387.265C337.607 387.265 337.723 387.245 337.84 387.206C338.914 386.844 339.619 384.856 339.943 383.704C339.962 383.635 339.939 383.562 339.884 383.517C339.829 383.473 339.752 383.465 339.689 383.498C339.362 383.669 336.493 385.203 336.399 386.336C336.385 386.509 336.427 386.759 336.705 386.969C336.964 387.166 337.228 387.265 337.49 387.265ZM339.476 384.02C338.978 385.61 338.335 386.663 337.725 386.869C337.461 386.957 337.199 386.897 336.918 386.685C336.756 386.563 336.746 386.444 336.753 386.365C336.811 385.67 338.492 384.578 339.476 384.02Z" fill="#407BFF"/>
<path d="M337.047 384.468C338.066 384.468 339.315 384.143 339.864 383.808C339.918 383.775 339.95 383.715 339.949 383.652C339.948 383.589 339.912 383.531 339.857 383.5C339.761 383.447 337.488 382.197 336.266 382.632C335.947 382.744 335.721 382.958 335.596 383.266C335.401 383.746 335.614 384.024 335.759 384.146C336.03 384.377 336.506 384.468 337.047 384.468ZM339.378 383.655C338.406 384.069 336.521 384.324 335.989 383.875C335.901 383.8 335.813 383.678 335.926 383.401C336.012 383.189 336.162 383.047 336.384 382.969C337.218 382.671 338.732 383.337 339.378 383.655Z" fill="#407BFF"/>
<path d="M261.718 408.58C262.75 408.58 263.871 408.381 264.65 408.208C264.724 408.191 264.78 408.129 264.789 408.054C264.797 407.978 264.757 407.906 264.687 407.873C264.246 407.665 260.35 405.865 259.368 406.529C259.243 406.613 259.097 406.778 259.114 407.08C259.138 407.499 259.316 407.837 259.644 408.085C260.132 408.453 260.896 408.58 261.718 408.58ZM264.037 407.969C262.88 408.186 260.741 408.467 259.86 407.801C259.616 407.616 259.489 407.374 259.47 407.06C259.462 406.915 259.518 406.857 259.568 406.824C260.116 406.451 262.42 407.257 264.037 407.969Z" fill="#407BFF"/>
<path d="M264.611 408.212C264.652 408.212 264.694 408.197 264.726 408.17C264.777 408.127 264.799 408.059 264.785 407.994C264.748 407.83 263.864 403.988 261.749 404.233C261.22 404.296 261.075 404.559 261.046 404.768C260.914 405.746 263.37 407.718 264.543 408.198C264.565 408.207 264.588 408.212 264.611 408.212ZM261.94 404.578C263.291 404.578 264.078 406.814 264.339 407.709C263.07 407.044 261.314 405.442 261.399 404.816C261.405 404.77 261.424 404.63 261.791 404.586C261.842 404.581 261.892 404.578 261.94 404.578Z" fill="#407BFF"/>
<path d="M261.83 136.813L260.207 135.979C260.207 135.979 260.825 137.496 261.83 136.813Z" fill="#263238"/>
<path d="M277.531 164.317L274.754 164.388C274.596 164.392 274.462 164.502 274.431 164.657C274.083 166.41 272.215 176.937 273.431 195.858C274.62 190.338 277.528 178.662 278.759 176.114C277.698 175.307 275.999 173.949 275.999 173.949L279.116 171.953L277.873 164.6C277.845 164.433 277.699 164.312 277.531 164.317Z" fill="#407BFF"/>
<path opacity="0.2" d="M277.531 164.317L274.754 164.388C274.596 164.392 274.462 164.502 274.431 164.657C274.083 166.41 272.215 176.937 273.431 195.858C274.62 190.338 277.528 178.662 278.759 176.114C277.698 175.307 275.999 173.949 275.999 173.949L279.116 171.953L277.873 164.6C277.845 164.433 277.699 164.312 277.531 164.317Z" fill="white"/>
<path d="M254.623 166.619L257.915 166.045C257.915 166.045 258.202 175.448 256.864 196.253C255.675 190.733 253.198 179.297 253.058 176.113C254.12 175.306 255.818 173.948 255.818 173.948L252.701 171.952L254.623 166.619Z" fill="#407BFF"/>
<path opacity="0.2" d="M254.623 166.619L257.915 166.045C257.915 166.045 258.202 175.448 256.864 196.253C255.675 190.733 253.198 179.297 253.058 176.113C254.12 175.306 255.818 173.948 255.818 173.948L252.701 171.952L254.623 166.619Z" fill="white"/>
<path d="M212.153 295.527H174.446C165.392 295.527 157.984 302.935 157.984 311.989V391.41C157.984 400.464 165.392 407.872 174.446 407.872H212.153C221.207 407.872 228.615 400.464 228.615 391.41V311.989C228.615 302.935 221.207 295.527 212.153 295.527Z" fill="#263238"/>
<path d="M198.273 222.613C203.408 222.613 207.586 226.791 207.586 231.926V339.284C207.586 344.419 203.408 348.596 198.273 348.596H188.326C183.191 348.596 179.013 344.419 179.013 339.284V231.926C179.013 226.791 183.191 222.613 188.326 222.613H198.273ZM198.273 220.817H188.326C182.216 220.817 177.217 225.816 177.217 231.926V339.284C177.217 345.394 182.216 350.393 188.326 350.393H198.273C204.383 350.393 209.382 345.394 209.382 339.284V231.926C209.381 225.816 204.382 220.817 198.273 220.817Z" fill="#263238"/>
<path d="M214.782 413.335C217.096 413.335 218.973 411.459 218.973 409.144C218.973 406.83 217.096 404.953 214.782 404.953C212.467 404.953 210.591 406.83 210.591 409.144C210.591 411.459 212.467 413.335 214.782 413.335Z" fill="#263238"/>
<path d="M204.226 409.144C204.226 411.459 202.349 413.335 200.035 413.335C197.72 413.335 195.844 411.458 195.844 409.144C195.844 406.829 197.72 404.953 200.035 404.953C202.349 404.952 204.226 406.829 204.226 409.144Z" fill="#263238"/>
<path d="M180.11 409.144C180.11 411.459 178.234 413.335 175.919 413.335C173.604 413.335 171.728 411.458 171.728 409.144C171.728 406.829 173.604 404.953 175.919 404.953C178.234 404.952 180.11 406.829 180.11 409.144Z" fill="#263238"/>
<path d="M161.171 413.335C163.486 413.335 165.362 411.459 165.362 409.144C165.362 406.83 163.486 404.953 161.171 404.953C158.856 404.953 156.98 406.83 156.98 409.144C156.98 411.459 158.856 413.335 161.171 413.335Z" fill="#263238"/>
<path d="M201.508 295.527H163.801C154.747 295.527 147.339 302.935 147.339 311.989V391.41C147.339 400.464 154.747 407.872 163.801 407.872H201.508C210.562 407.872 217.97 400.464 217.97 391.41V311.989C217.97 302.935 210.562 295.527 201.508 295.527Z" fill="#407BFF"/>
<path opacity="0.2" d="M201.508 295.527H163.801C154.747 295.527 147.339 302.935 147.339 311.989V391.41C147.339 400.464 154.747 407.872 163.801 407.872H201.508C210.562 407.872 217.97 400.464 217.97 391.41V311.989C217.97 302.935 210.562 295.527 201.508 295.527Z" fill="white"/>
<path d="M194.07 305.994H163.389C156.022 305.994 149.995 312.021 149.995 319.388V384.01C149.995 391.377 156.022 397.404 163.389 397.404H194.07C201.437 397.404 207.464 391.377 207.464 384.01V319.388C207.464 312.022 201.436 305.994 194.07 305.994Z" fill="#407BFF"/>
<path d="M159.726 390.786C157.622 390.786 155.91 389.074 155.91 386.97V316.429C155.91 314.325 157.622 312.613 159.726 312.613C161.83 312.613 163.542 314.325 163.542 316.429V386.97C163.542 389.074 161.83 390.786 159.726 390.786ZM159.726 313.511C158.117 313.511 156.808 314.82 156.808 316.429V386.97C156.808 388.579 158.117 389.888 159.726 389.888C161.335 389.888 162.643 388.579 162.643 386.97V316.429C162.644 314.82 161.335 313.511 159.726 313.511Z" fill="white"/>
<path d="M197.861 390.786C195.757 390.786 194.045 389.074 194.045 386.97V316.429C194.045 314.325 195.757 312.613 197.861 312.613C199.966 312.613 201.677 314.325 201.677 316.429V386.97C201.677 389.074 199.965 390.786 197.861 390.786ZM197.861 313.511C196.252 313.511 194.944 314.82 194.944 316.429V386.97C194.944 388.579 196.253 389.888 197.861 389.888C199.47 389.888 200.779 388.579 200.779 386.97V316.429C200.779 314.82 199.47 313.511 197.861 313.511Z" fill="white"/>
<path d="M185.149 390.786C183.045 390.786 181.333 389.074 181.333 386.97V316.429C181.333 314.325 183.045 312.613 185.149 312.613C187.253 312.613 188.965 314.325 188.965 316.429V386.97C188.965 389.074 187.253 390.786 185.149 390.786ZM185.149 313.511C183.54 313.511 182.232 314.82 182.232 316.429V386.97C182.232 388.579 183.541 389.888 185.149 389.888C186.757 389.888 188.066 388.579 188.066 386.97V316.429C188.067 314.82 186.758 313.511 185.149 313.511Z" fill="white"/>
<path d="M172.438 390.786C170.334 390.786 168.622 389.074 168.622 386.97V316.429C168.622 314.325 170.334 312.613 172.438 312.613C174.542 312.613 176.254 314.325 176.254 316.429V386.97C176.253 389.074 174.542 390.786 172.438 390.786ZM172.438 313.511C170.829 313.511 169.521 314.82 169.521 316.429V386.97C169.521 388.579 170.83 389.888 172.438 389.888C174.046 389.888 175.355 388.579 175.355 386.97V316.429C175.355 314.82 174.046 313.511 172.438 313.511Z" fill="white"/>
</svg>
