<svg width="995" height="423" viewBox="0 0 995 423" fill="none" xmlns="http://www.w3.org/2000/svg">
<mask id="mask0_24_239" style="mask-type:luminance" maskUnits="userSpaceOnUse" x="0" y="0" width="995" height="423">
<path d="M994.23 0H0.5V422.322H994.23V0Z" fill="white"/>
</mask>
<g mask="url(#mask0_24_239)">
<path d="M380.839 279.582L383.734 356.301H376.687V364.986H396.383V356.301H390.638L391.048 279.582H380.839Z" fill="#808080"/>
<path d="M373.239 343.997C376.237 343.997 378.668 346.427 378.668 349.425V371.862C378.668 374.86 376.237 377.29 373.239 377.29C370.241 377.29 367.811 374.86 367.811 371.862V349.425C367.811 346.427 370.241 343.997 373.239 343.997Z" fill="#808080"/>
<path d="M400.741 343.997C403.739 343.997 406.17 346.427 406.17 349.425V371.862C406.17 374.86 403.739 377.29 400.741 377.29C397.743 377.29 395.313 374.86 395.313 371.862V349.425C395.313 346.427 397.743 343.997 400.741 343.997Z" fill="#808080"/>
<path d="M444.892 231.781L333.432 226.715L350.803 218.754L448.511 220.201L444.892 231.781Z" fill="#1565C0"/>
<path d="M0.5 243.032L13.9609 237.965L431.864 248.822L449.235 240.86L441.997 290.076L110.038 254.704L0.5 243.032Z" fill="#1565C0"/>
<path d="M57.5 257.5L0.711914 243.024L459.48 290.533L456.319 315.286L57.5 257.5Z" fill="#808080"/>
<path d="M331.261 321.56C350.248 321.56 365.64 305.196 365.64 285.01C365.64 264.824 350.248 248.46 331.261 248.46C312.274 248.46 296.882 264.824 296.882 285.01C296.882 305.196 312.274 321.56 331.261 321.56Z" fill="#808080"/>
<path d="M331.261 303.828C345.251 303.828 356.593 292.486 356.593 278.496C356.593 264.506 345.251 253.164 331.261 253.164C317.271 253.164 305.929 264.506 305.929 278.496C305.929 292.486 317.271 303.828 331.261 303.828Z" fill="#1565C0"/>
<path d="M613.891 279.582L610.996 356.301H618.043V364.986H598.348V356.301H604.092L603.682 279.582H613.891Z" fill="#808080"/>
<path d="M621.491 343.997C618.493 343.997 616.063 346.427 616.063 349.425V371.862C616.063 374.86 618.493 377.29 621.491 377.29C624.489 377.29 626.919 374.86 626.919 371.862V349.425C626.919 346.427 624.489 343.997 621.491 343.997Z" fill="#808080"/>
<path d="M593.988 343.997C590.99 343.997 588.56 346.427 588.56 349.425V371.862C588.56 374.86 590.99 377.29 593.988 377.29C596.986 377.29 599.416 374.86 599.416 371.862V349.425C599.416 346.427 596.986 343.997 593.988 343.997Z" fill="#808080"/>
<path d="M549.838 231.781L661.298 226.715L643.928 218.754L546.219 220.201L549.838 231.781Z" fill="#1565C0"/>
<path d="M509.944 216.188L504.878 104.728L496.916 122.099L498.364 219.807L509.944 216.188Z" fill="#1565C0"/>
<path d="M994.23 243.032L980.769 237.965L562.866 248.822L545.496 240.86L552.733 290.076L884.692 254.704L994.23 243.032Z" fill="#1565C0"/>
<path d="M930 260L993.5 243L547.341 289.96L550.47 314.935L930 260Z" fill="#808080"/>
<path d="M663.469 321.56C682.456 321.56 697.848 305.196 697.848 285.01C697.848 264.824 682.456 248.46 663.469 248.46C644.482 248.46 629.091 264.824 629.091 285.01C629.091 305.196 644.482 321.56 663.469 321.56Z" fill="#808080"/>
<path d="M663.469 303.828C677.46 303.828 688.801 292.486 688.801 278.496C688.801 264.506 677.46 253.164 663.469 253.164C649.479 253.164 638.138 264.506 638.138 278.496C638.138 292.486 649.479 303.828 663.469 303.828Z" fill="#1565C0"/>
<path d="M560.513 217.897L558.87 230.004L558.017 295.172C557.952 300.021 557.365 304.812 556.265 309.459C553.095 322.993 545.691 335.304 534.755 344.229C524.832 352.335 511.298 358.472 493.384 357.387C445.616 354.491 441.396 313.838 441.396 313.838L443.199 240.115L443.445 230.004L445.616 211.76C445.616 211.76 451.406 160.373 504.965 161.82C558.523 163.268 560.513 217.897 560.513 217.897Z" fill="#1565C0"/>
<path d="M457.196 200.903L468.053 183.533L481.804 179.19H528.849L540.429 183.533L550.938 200.903L531.744 192.218H477.9L457.196 200.903Z" fill="#808080"/>
<path d="M495.293 343V371.746H491V375H503V371.746H499.499V343H495.293Z" fill="#808080"/>
<path d="M489.483 363C491.406 363 492.965 364.559 492.965 366.482V380.876C492.965 382.799 491.406 384.358 489.483 384.358C487.559 384.358 486 382.799 486 380.876V366.482C486 364.559 487.559 363 489.483 363Z" fill="#808080"/>
<path d="M505.483 363C507.406 363 508.965 364.559 508.965 366.482V380.876C508.965 382.799 507.406 384.358 505.483 384.358C503.559 384.358 502 382.799 502 380.876V366.482C502 364.559 503.559 363 505.483 363Z" fill="#808080"/>
<path d="M483.536 168.522L473.537 204.523L475.464 205.058L485.463 169.058L483.536 168.522Z" fill="#1565C0"/>
<path d="M528.879 174.266L526.916 174.652L534.121 211.314L536.083 210.928L528.879 174.266Z" fill="#1565C0"/>
<path d="M734.916 116.754C742.096 116.754 747.916 110.933 747.916 103.754C747.916 96.5737 742.096 90.7534 734.916 90.7534C727.737 90.7534 721.916 96.5737 721.916 103.754C721.916 110.933 727.737 116.754 734.916 116.754Z" fill="#1565C0"/>
<path d="M375.102 159.306C382.282 159.306 388.102 153.486 388.102 146.306C388.102 139.127 382.282 133.306 375.102 133.306C367.922 133.306 362.102 139.127 362.102 146.306C362.102 153.486 367.922 159.306 375.102 159.306Z" fill="#1565C0"/>
</g>
</svg>
