<?xml version="1.0" encoding="utf-8"?>
<!-- Generator: Adobe Illustrator 27.5.0, SVG Export Plug-In . SVG Version: 6.00 Build 0)  -->
<svg version="1.1" xmlns="http://www.w3.org/2000/svg" xmlns:xlink="http://www.w3.org/1999/xlink" x="0px" y="0px"
	 viewBox="0 0 500 500" style="enable-background:new 0 0 500 500;" xml:space="preserve">
<g id="Background_Complete">
	<g>
		<rect y="382.398" style="fill:#EBEBEB;" width="500" height="0.25"/>
		<rect x="393.106" y="398.619" style="fill:#EBEBEB;" width="16.561" height="0.25"/>
		<rect x="329.194" y="394.986" style="fill:#EBEBEB;" width="37.806" height="0.25"/>
		<rect x="265" y="389.208" style="fill:#EBEBEB;" width="69.081" height="0.25"/>
		<rect x="52.459" y="390.888" style="fill:#EBEBEB;" width="12.693" height="0.25"/>
		<rect x="74.056" y="390.888" style="fill:#EBEBEB;" width="36.833" height="0.25"/>
		<rect x="152.333" y="395.111" style="fill:#EBEBEB;" width="59.529" height="0.25"/>
		<path style="fill:#EBEBEB;" d="M237.014,337.8H43.915c-3.147,0-5.708-2.56-5.708-5.708V60.66c0-3.147,2.561-5.708,5.708-5.708
			h193.099c3.146,0,5.707,2.561,5.707,5.708v271.432C242.721,335.239,240.16,337.8,237.014,337.8z M43.915,55.203
			c-3.01,0-5.458,2.448-5.458,5.458v271.432c0,3.01,2.448,5.458,5.458,5.458h193.099c3.009,0,5.457-2.448,5.457-5.458V60.66
			c0-3.009-2.448-5.458-5.457-5.458H43.915z"/>
		<path style="fill:#EBEBEB;" d="M453.31,337.8H260.212c-3.147,0-5.707-2.56-5.707-5.708V60.66c0-3.147,2.561-5.708,5.707-5.708
			H453.31c3.148,0,5.708,2.561,5.708,5.708v271.432C459.019,335.239,456.458,337.8,453.31,337.8z M260.212,55.203
			c-3.009,0-5.457,2.448-5.457,5.458v271.432c0,3.01,2.448,5.458,5.457,5.458H453.31c3.01,0,5.458-2.448,5.458-5.458V60.66
			c0-3.009-2.448-5.458-5.458-5.458H260.212z"/>
	</g>
	<g>
		<g>
			<rect x="233.904" style="fill:#F5F5F5;" width="21.556" height="382.398"/>
			
				<rect x="255.46" transform="matrix(-1 -1.224647e-16 1.224647e-16 -1 513.9463 382.3984)" style="fill:#E0E0E0;" width="3.027" height="382.398"/>
		</g>
		<g>
			<path style="fill:#E6E6E6;" d="M139.167,343.883H25.5l0,0c0-6.996,5.671-12.667,12.667-12.667h101V343.883z"/>
			<path style="fill:#E0E0E0;" d="M147.501,343.883H97.834l0,0c0-6.996,5.671-12.667,12.667-12.667h37V343.883z"/>
		</g>
		<g>
			<path style="fill:#E6E6E6;" d="M218.587,343.883H104.92l0,0c0-6.996,5.671-12.667,12.667-12.667h101V343.883z"/>
			<path style="fill:#E0E0E0;" d="M226.92,343.883h-49.667l0,0c0-6.996,5.671-12.667,12.667-12.667h37V343.883z"/>
		</g>
		<g>
			<path style="fill:#E6E6E6;" d="M379.957,343.883H266.29l0,0c0-6.996,5.671-12.667,12.667-12.667h101V343.883z"/>
			<path style="fill:#E0E0E0;" d="M388.29,343.883h-49.667l0,0c0-6.996,5.671-12.667,12.667-12.667h37V343.883z"/>
		</g>
		<g>
			<polygon style="fill:#EBEBEB;" points="428.42,304.333 378.08,304.333 385.167,382.398 421.333,382.398 			"/>
			<g>
				<path style="fill:#EBEBEB;" d="M402.75,317.348c-0.925-32.294,6.634-99.167,20.136-126.371l0.895,0.444
					c-12.964,26.121-20.964,93.334-20.031,125.898L402.75,317.348z"/>
				<g>
					<path style="fill:#EBEBEB;" d="M407.747,253.758c0,0-3.303-31.266-15.525-40.86
						C385.667,232.638,399.089,239.444,407.747,253.758z"/>
					<path style="fill:#EBEBEB;" d="M407.747,254.258c-0.171,0-0.336-0.088-0.428-0.241c-2.253-3.725-4.824-6.927-7.309-10.025
						c-7.075-8.815-13.185-16.429-8.263-31.252c0.051-0.154,0.175-0.274,0.331-0.321c0.155-0.046,0.325-0.015,0.453,0.086
						c12.247,9.613,15.578,39.915,15.713,41.2c0.025,0.233-0.116,0.452-0.337,0.527C407.854,254.25,407.8,254.258,407.747,254.258z
						 M392.473,213.751c-4.332,13.852,1.538,21.167,8.317,29.615c2.073,2.582,4.204,5.238,6.173,8.219
						C405.954,244.432,402.097,222.031,392.473,213.751z"/>
				</g>
				<g>
					<path style="fill:#EBEBEB;" d="M409.565,241.914c0,0,12.966-28.91,27.635-34.033
						C437.017,228.679,422.388,231.171,409.565,241.914z"/>
					<path style="fill:#EBEBEB;" d="M409.565,242.414c-0.106,0-0.212-0.034-0.302-0.101c-0.186-0.141-0.25-0.391-0.154-0.604
						c0.533-1.188,13.223-29.165,27.926-34.301c0.153-0.054,0.324-0.03,0.456,0.066c0.132,0.095,0.211,0.248,0.209,0.411
						c-0.139,15.788-8.423,21.183-18.016,27.429c-3.229,2.102-6.567,4.276-9.798,6.983
						C409.793,242.375,409.679,242.414,409.565,242.414z M436.687,208.607c-11.817,4.746-22.562,25.086-25.728,31.54
						c2.728-2.121,5.491-3.92,8.179-5.67C428.339,228.485,436.305,223.299,436.687,208.607z"/>
				</g>
				<g>
					<path style="fill:#EBEBEB;" d="M403.539,297.772c0,0-5.01-43.504-20.182-54.986
						C375.757,267.097,392.627,280.434,403.539,297.772z"/>
					<path style="fill:#EBEBEB;" d="M403.539,298.384c-0.206,0-0.404-0.104-0.518-0.286c-2.332-3.706-4.975-7.277-7.531-10.732
						c-9.656-13.051-18.777-25.378-12.718-44.763c0.06-0.19,0.208-0.34,0.397-0.4c0.192-0.061,0.398-0.026,0.557,0.095
						c15.206,11.508,20.215,53.617,20.421,55.404c0.033,0.284-0.136,0.553-0.405,0.647
						C403.675,298.373,403.606,298.384,403.539,298.384z M383.681,243.828c-5.34,18.302,3.472,30.212,12.793,42.81
						c2.042,2.759,4.138,5.593,6.096,8.519C401.206,285.707,395.818,254.032,383.681,243.828z"/>
				</g>
				<g>
					<path style="fill:#EBEBEB;" d="M405.287,274.318c0,0,16.918-30.983,34.767-37.574
						C440.28,262.214,420.756,260.887,405.287,274.318z"/>
					<path style="fill:#EBEBEB;" d="M405.287,274.93c-0.136,0-0.272-0.045-0.384-0.135c-0.231-0.186-0.295-0.51-0.154-0.77
						c0.695-1.273,17.233-31.26,35.093-37.855c0.188-0.069,0.397-0.043,0.56,0.07c0.164,0.113,0.263,0.299,0.265,0.499
						c0.159,17.889-9.248,22.848-20.14,28.59c-4.946,2.607-10.061,5.304-14.838,9.452C405.574,274.88,405.43,274.93,405.287,274.93z
						 M439.441,237.641c-13.955,5.76-27.373,26.469-31.957,34.112c4.099-3.095,8.343-5.331,12.471-7.508
						C430.308,258.788,439.274,254.06,439.441,237.641z"/>
				</g>
				<g>
					<path style="fill:#EBEBEB;" d="M413.255,222.132c0,0-2.304-21.811-10.83-28.504
						C397.851,207.399,407.214,212.147,413.255,222.132z"/>
					<path style="fill:#EBEBEB;" d="M413.255,222.481c-0.12,0-0.234-0.062-0.298-0.168c-1.572-2.599-3.365-4.833-5.099-6.994
						c-4.935-6.15-9.198-11.461-5.764-21.801c0.036-0.108,0.122-0.191,0.23-0.224c0.108-0.034,0.227-0.011,0.316,0.06
						c8.544,6.707,10.867,27.846,10.962,28.742c0.018,0.163-0.081,0.315-0.235,0.367
						C413.33,222.475,413.292,222.481,413.255,222.481z M402.599,194.223c-3.022,9.664,1.073,14.767,5.802,20.66
						c1.446,1.802,2.933,3.654,4.307,5.733C412.004,215.627,409.313,199.999,402.599,194.223z"/>
				</g>
				<g>
					<path style="fill:#EBEBEB;" d="M417.221,207.444c0,0,9.045-20.168,19.279-23.742
						C436.372,198.212,426.167,199.95,417.221,207.444z"/>
					<path style="fill:#EBEBEB;" d="M417.222,207.793c-0.074,0-0.148-0.023-0.211-0.07c-0.129-0.098-0.174-0.273-0.108-0.421
						c0.372-0.829,9.225-20.346,19.482-23.929c0.108-0.037,0.226-0.02,0.318,0.046c0.092,0.066,0.147,0.173,0.146,0.287
						c-0.097,11.014-5.876,14.777-12.567,19.135c-2.252,1.467-4.581,2.983-6.835,4.872
						C417.381,207.766,417.301,207.793,417.222,207.793z M436.143,184.209c-8.244,3.311-15.74,17.5-17.948,22.002
						c1.903-1.48,3.831-2.735,5.706-3.956C430.318,198.076,435.875,194.457,436.143,184.209z"/>
				</g>
			</g>
		</g>
		<path style="fill:#F5F5F5;" d="M156.04,194.68c-9.507-0.667-13.619,0.444-17.73-8.112c-4.111-8.557-18.446-13.136-23.113-5.679
			s-6.334,12.644-17.113,8.217c-10.779-4.427-14.335-1.204-15.89,4.685c-1.556,5.889-26.225,3.05-19.002,11.47h91.342
			C154.534,205.261,165.547,195.347,156.04,194.68z"/>
		<path style="fill:#F5F5F5;" d="M438.801,148.967c-5.379-0.377-7.705,0.251-10.032-4.59c-2.326-4.841-10.437-7.432-13.077-3.213
			c-2.641,4.219-3.584,7.154-9.682,4.649c-6.098-2.505-8.11-0.681-8.991,2.651c-0.88,3.332-14.838,1.725-10.751,6.49h51.68
			C437.948,154.953,444.18,149.344,438.801,148.967z"/>
		<path style="fill:#F5F5F5;" d="M374.417,31.718c-2.668-4.336-10.296-5.781-17.12-2.409c-6.825,3.372-2.176-17.752-14.934-14.211
			c-18.226,5.058-13.15,20.174-20.744,18.787c-7.594-1.387-29.854,2.329-18.084,9.877h67.353
			C370.888,43.762,377.085,36.054,374.417,31.718z"/>
	</g>
</g>
<g id="Background_Simple" style="display:none;">
	<g style="display:inline;">
		<path style="fill:#407BFF;" d="M246.361,124.65c32.401-17.722,57.899-49.794,99.375-38.675
			c32.128,8.613,50.756,41.553,50.728,73.341c-0.069,77.922-97.208,141.588-166.335,151.901
			c-68.017,10.148-150.018-58.115-128.746-131.683c8.438-29.181,37.994-57.517,69.914-55.446
			C200.635,125.991,215.24,141.673,246.361,124.65z"/>
		<path style="opacity:0.9;fill:#FFFFFF;" d="M246.361,124.65c32.401-17.722,57.899-49.794,99.375-38.675
			c32.128,8.613,50.756,41.553,50.728,73.341c-0.069,77.922-97.208,141.588-166.335,151.901
			c-68.017,10.148-150.018-58.115-128.746-131.683c8.438-29.181,37.994-57.517,69.914-55.446
			C200.635,125.991,215.24,141.673,246.361,124.65z"/>
	</g>
</g>
<g id="Shadow_1_">
	<ellipse id="_x3C_Path_x3E__175_" style="fill:#F5F5F5;" cx="250" cy="416.238" rx="193.889" ry="11.323"/>
</g>
<g id="Sign">
	<g>
		<rect x="81.464" style="fill:#407BFF;" width="1.729" height="125.524"/>
		<rect x="183.085" style="fill:#407BFF;" width="1.729" height="125.524"/>
		<g>
			<g>
				<g>
					<rect x="61.797" y="78.789" style="fill:#407BFF;" width="142.684" height="32.459"/>
					<rect x="61.797" y="78.789" style="opacity:0.3;fill:#FFFFFF;" width="142.684" height="32.459"/>
				</g>
				<polygon style="fill:#FFFFFF;" points="79.294,92.574 75.757,89.037 70.869,89.037 75.124,93.292 66.553,93.292 66.553,96.746 
					75.128,96.746 70.869,100.999 75.757,100.999 79.294,97.462 81.733,95.013 				"/>
				<rect x="145.012" y="90.278" style="opacity:0.7;fill:#407BFF;" width="51.29" height="9.481"/>
				<rect x="115.286" y="90.278" style="opacity:0.7;fill:#407BFF;" width="21.967" height="9.481"/>
				<g>
					<rect x="87.865" y="85.346" style="fill:#FFFFFF;" width="19.347" height="19.347"/>
					<g>
						<path style="fill:#263238;" d="M105.025,90.28l-0.482-0.001c-0.061,0-0.121,0.002-0.182,0.005c-0.005,0-0.009,0-0.014,0
							l-0.002,0.001c-0.399,0.025-0.79,0.13-1.149,0.31l-2.992,1.501l-5.625-0.938c-0.477-0.061-0.96,0.018-1.393,0.226
							l-0.534,0.257l3.666,2.564l-3.409,1.603l-2.255-0.651L89.65,95.64l2.644,2.003l5.554-2.672l3.185-1.533l3.164-1.522
							c0.238-0.115,0.459-0.26,0.657-0.431c0.013-0.011,0.026-0.022,0.038-0.033c-0.001,0-0.001,0-0.002,0
							c0.177-0.158,0.336-0.335,0.471-0.532C105.548,90.65,105.354,90.28,105.025,90.28z"/>
						<rect x="89.188" y="100.755" style="fill:#263238;" width="16.702" height="1.625"/>
					</g>
				</g>
			</g>
			<g>
				<g>
					<rect x="61.797" y="120.898" style="fill:#407BFF;" width="142.684" height="32.459"/>
					<rect x="61.797" y="120.898" style="opacity:0.3;fill:#FFFFFF;" width="142.684" height="32.459"/>
				</g>
				<polygon style="fill:#FFFFFF;" points="68.993,134.682 72.53,131.145 77.418,131.145 73.163,135.401 81.733,135.401 
					81.733,138.854 73.159,138.854 77.418,143.107 72.53,143.107 68.993,139.57 66.553,137.122 				"/>
				<rect x="145.012" y="132.387" style="opacity:0.7;fill:#407BFF;" width="51.29" height="9.481"/>
				<rect x="115.286" y="132.387" style="opacity:0.7;fill:#407BFF;" width="21.967" height="9.481"/>
				<g>
					<rect x="87.865" y="127.454" style="fill:#FFFFFF;" width="19.347" height="19.347"/>
					<g>
						<path style="fill:#263238;" d="M105.025,132.388l-0.482-0.001c-0.061,0-0.121,0.002-0.182,0.005c-0.005,0-0.009,0-0.014,0
							l-0.002,0.001c-0.399,0.025-0.79,0.13-1.149,0.31l-2.992,1.501l-5.625-0.938c-0.477-0.061-0.96,0.018-1.393,0.226
							l-0.534,0.257l3.666,2.564l-3.409,1.603l-2.255-0.651l-1.004,0.483l2.644,2.003l5.554-2.672l3.185-1.533l3.164-1.522
							c0.238-0.115,0.459-0.26,0.657-0.431c0.013-0.011,0.026-0.022,0.038-0.033c-0.001,0-0.001,0-0.002,0
							c0.177-0.158,0.336-0.335,0.471-0.532C105.548,132.759,105.354,132.389,105.025,132.388z"/>
						<rect x="89.188" y="142.864" style="fill:#263238;" width="16.702" height="1.625"/>
					</g>
				</g>
			</g>
		</g>
	</g>
</g>
<g id="Plane">
	<g>
		<g>
			<polygon style="fill:#407BFF;" points="327.038,110.527 318.907,105.668 323.64,104.741 336.238,107.239 			"/>
			<polygon style="opacity:0.3;fill:#263238;" points="327.038,110.527 318.907,105.668 323.64,104.741 336.238,107.239 			"/>
		</g>
		<g>
			<path style="fill:#407BFF;" d="M383.284,95.633l-9.897-12.419l3.66-0.717c2.97-0.581,6.044-0.291,8.853,0.835l19.137,7.675
				L383.284,95.633z"/>
			<path style="opacity:0.3;fill:#263238;" d="M383.284,95.633l-9.897-12.419l3.66-0.717c2.97-0.581,6.044-0.291,8.853,0.835
				l19.137,7.675L383.284,95.633z"/>
		</g>
		<path style="fill:#407BFF;" d="M435.143,86.726l-2.939-0.774c-2.847-0.75-5.831-0.821-8.711-0.207l-96.849,21.964l-0.917,4.175
			l3.78,2.695l97.987-19.188c3.21-0.628,6.2-2.083,8.676-4.22C437.742,89.815,437.149,87.254,435.143,86.726z"/>
		
			<rect x="333.104" y="121.6" transform="matrix(0.9781 -0.2079 0.2079 0.9781 -17.5856 76.438)" style="fill:#407BFF;" width="43.346" height="0.526"/>
		
			<rect x="342.553" y="92.803" transform="matrix(0.9781 -0.2079 0.2079 0.9781 -11.5552 76.1898)" style="fill:#407BFF;" width="28.254" height="0.526"/>
		
			<rect x="314.173" y="129.014" transform="matrix(0.9781 -0.2079 0.2079 0.9781 -19.8878 69.3644)" style="fill:#407BFF;" width="11.615" height="0.526"/>
		<path style="opacity:0.3;fill:#263238;" d="M425.063,93.75l-95.718,20.39c-0.449,0.095-0.863,0.255-1.243,0.481
			c0.458,0.061,0.93,0.048,1.408-0.046l97.981-19.186c1.607-0.315,3.159-0.834,4.616-1.544c0.118-0.059,0.243-0.12,0.361-0.179
			C430.026,93.202,427.507,93.228,425.063,93.75z"/>
		<polygon style="fill:#407BFF;" points="325.728,111.883 323.268,122.272 328,121.345 336.614,110.096 		"/>
		<polygon style="fill:#407BFF;" points="326.645,107.708 320.898,97.318 325.315,96.453 338.036,105.478 		"/>
		<path style="fill:#407BFF;" d="M384.143,100.021l-1.595,29.98l0,0c4.538-0.889,8.452-3.734,10.697-7.776l14.949-26.914
			L384.143,100.021z"/>
		<g style="opacity:0.5;">
			<g>
				
					<rect x="358.266" y="103.75" transform="matrix(0.9796 -0.2009 0.2009 0.9796 -13.7526 74.2358)" style="fill:#FFFFFF;" width="1.235" height="2.254"/>
				
					<rect x="360.708" y="103.249" transform="matrix(0.9796 -0.2008 0.2008 0.9796 -13.5999 74.6864)" style="fill:#FFFFFF;" width="1.235" height="2.254"/>
				
					<rect x="363.149" y="102.749" transform="matrix(0.9796 -0.2008 0.2008 0.9796 -13.4496 75.1665)" style="fill:#FFFFFF;" width="1.235" height="2.254"/>
				
					<rect x="365.591" y="102.248" transform="matrix(0.9796 -0.2008 0.2008 0.9796 -13.2994 75.6466)" style="fill:#FFFFFF;" width="1.235" height="2.254"/>
				
					<rect x="368.032" y="101.748" transform="matrix(0.9796 -0.2008 0.2008 0.9796 -13.1491 76.1267)" style="fill:#FFFFFF;" width="1.235" height="2.254"/>
				
					<rect x="370.474" y="101.247" transform="matrix(0.9796 -0.2008 0.2008 0.9796 -12.9989 76.6068)" style="fill:#FFFFFF;" width="1.235" height="2.254"/>
				
					<rect x="372.916" y="100.746" transform="matrix(0.9796 -0.2008 0.2008 0.9796 -12.8486 77.0869)" style="fill:#FFFFFF;" width="1.235" height="2.254"/>
				
					<rect x="375.357" y="100.246" transform="matrix(0.9796 -0.2009 0.2009 0.9796 -12.7002 77.5979)" style="fill:#FFFFFF;" width="1.235" height="2.254"/>
				
					<rect x="377.799" y="99.745" transform="matrix(0.9796 -0.2008 0.2008 0.9796 -12.5481 78.0471)" style="fill:#FFFFFF;" width="1.235" height="2.254"/>
				
					<rect x="380.24" y="99.245" transform="matrix(0.9796 -0.2008 0.2008 0.9796 -12.3979 78.5273)" style="fill:#FFFFFF;" width="1.235" height="2.254"/>
				
					<rect x="382.682" y="98.744" transform="matrix(0.9796 -0.2008 0.2008 0.9796 -12.2473 79.0009)" style="fill:#FFFFFF;" width="1.235" height="2.254"/>
				
					<rect x="385.123" y="98.244" transform="matrix(0.9796 -0.2008 0.2008 0.9796 -12.0973 79.4875)" style="fill:#FFFFFF;" width="1.235" height="2.254"/>
				
					<rect x="387.565" y="97.743" transform="matrix(0.9796 -0.2009 0.2009 0.9796 -11.9486 79.9993)" style="fill:#FFFFFF;" width="1.235" height="2.254"/>
				
					<rect x="390.007" y="97.243" transform="matrix(0.9796 -0.2008 0.2008 0.9796 -11.7965 80.4412)" style="fill:#FFFFFF;" width="1.235" height="2.254"/>
				
					<rect x="392.448" y="96.742" transform="matrix(0.9796 -0.2008 0.2008 0.9796 -11.6466 80.9278)" style="fill:#FFFFFF;" width="1.235" height="2.254"/>
				
					<rect x="394.89" y="96.242" transform="matrix(0.9796 -0.2008 0.2008 0.9796 -11.4963 81.4079)" style="fill:#FFFFFF;" width="1.235" height="2.254"/>
				
					<rect x="397.331" y="95.741" transform="matrix(0.9796 -0.2008 0.2008 0.9796 -11.3458 81.8814)" style="fill:#FFFFFF;" width="1.235" height="2.254"/>
				
					<rect x="399.773" y="95.24" transform="matrix(0.9796 -0.2008 0.2008 0.9796 -11.1958 82.3681)" style="fill:#FFFFFF;" width="1.235" height="2.254"/>
				
					<rect x="402.214" y="94.74" transform="matrix(0.9796 -0.2008 0.2008 0.9796 -11.0456 82.8483)" style="fill:#FFFFFF;" width="1.235" height="2.254"/>
				
					<rect x="404.656" y="94.239" transform="matrix(0.9796 -0.2009 0.2009 0.9796 -10.8963 83.3614)" style="fill:#FFFFFF;" width="1.235" height="2.254"/>
				
					<rect x="407.097" y="93.739" transform="matrix(0.9796 -0.2008 0.2008 0.9796 -10.745 83.8085)" style="fill:#FFFFFF;" width="1.235" height="2.254"/>
				
					<rect x="409.539" y="93.238" transform="matrix(0.9796 -0.2008 0.2008 0.9796 -10.5948 84.2886)" style="fill:#FFFFFF;" width="1.235" height="2.254"/>
			</g>
		</g>
		<path style="opacity:0.5;fill:#FFFFFF;" d="M435.144,86.728l-2.942-0.776c-0.394-0.103-0.794-0.197-1.197-0.276l-4.335,0.849
			c-0.602,0.118-0.998,0.706-0.88,1.308c0.118,0.603,0.707,1.005,1.31,0.887l8.719-1.707
			C435.613,86.887,435.394,86.794,435.144,86.728z"/>
	</g>
</g>
<g id="Character_1_">
	<g>
		<g>
			<path style="fill:#263238;" d="M278.049,134.892c12.229,26.43,42.207,40.811,10.956,55.417
				c-31.25,14.606-34.338-25.403-33.427-37.591C256.489,140.53,271.441,120.61,278.049,134.892z"/>
			<path style="fill:#263238;" d="M301.335,172.461c-0.017,0-0.035-0.002-0.053-0.006c-0.137-0.029-0.225-0.165-0.196-0.302
				c1.617-7.602-4.049-13.226-10.609-19.739c-4.89-4.854-10.432-10.356-13.357-17.425c-1.434-3.466-3.37-4.97-5.747-4.482
				c-6.39,1.321-13.579,15.994-13.447,24.57c0.002,0.141-0.11,0.256-0.251,0.259c-0.144-0.008-0.256-0.11-0.259-0.251
				c-0.134-8.743,7.273-23.716,13.854-25.077c1.824-0.378,4.402,0.147,6.321,4.786c2.886,6.974,8.389,12.438,13.245,17.258
				c6.667,6.618,12.424,12.334,10.749,20.207C301.559,172.379,301.453,172.461,301.335,172.461z"/>
			<path style="fill:#263238;" d="M254.345,144.062c3.076,2.085,8.354-5.951,10.892-16.468c-6.348-5.233-10.206-4.42-12.746,0.157
				C249.527,133.089,250.825,141.675,254.345,144.062z"/>
			<g>
				<path style="fill:#407BFF;" d="M243.828,309.697c0,0,42.913-8.741,74.163-1.422c-9.171-13.742-48.059-74.618-48.059-74.618
					l-18.486,21.983L243.828,309.697z"/>
				<path style="opacity:0.2;" d="M243.828,309.697c0,0,42.913-8.741,74.163-1.422c-9.171-13.742-48.059-74.618-48.059-74.618
					l-18.486,21.983L243.828,309.697z"/>
			</g>
			<path style="fill:#407BFF;" d="M257.186,177.333c-0.668,2.937-1.417,5.601-2.268,8.359c-0.845,2.733-1.779,5.446-2.82,8.146
				c-1.049,2.698-2.171,5.393-3.502,8.067c-1.322,2.682-2.77,5.356-4.697,8.033c-0.233,0.334-0.481,0.67-0.746,1.007
				c-0.267,0.342-0.476,0.635-0.897,1.109c-0.376,0.442-0.757,0.848-1.134,1.192c-0.382,0.377-0.762,0.704-1.139,1.002
				c-1.518,1.225-3.018,2.089-4.482,2.851c-2.924,1.516-5.793,2.461-8.637,3.308c-2.853,0.797-5.682,1.421-8.522,1.885
				c-2.855,0.466-5.637,0.809-8.594,0.952l-1.336-6.939c4.943-1.906,10.037-3.852,14.637-6.092c2.298-1.099,4.514-2.315,6.345-3.576
				c0.908-0.629,1.704-1.301,2.26-1.887c0.149-0.146,0.274-0.286,0.362-0.412c0.121-0.133,0.188-0.247,0.24-0.345l0.342-0.54
				c0.141-0.217,0.281-0.45,0.418-0.696c1.103-1.92,2.141-4.177,3.094-6.501c0.939-2.338,1.836-4.768,2.661-7.242
				c0.832-2.474,1.621-4.989,2.379-7.519c0.748-2.506,1.503-5.137,2.174-7.538L257.186,177.333z"/>
			<path style="fill:#FFC3BD;" d="M209.994,217.285l-8.073,0.419l4.578,8.278c0,0,5.166-1.84,6.435-6.915L209.994,217.285z"/>
			<polygon style="fill:#FFC3BD;" points="195.969,222.989 202.501,228.126 206.499,225.982 201.921,217.704 			"/>
			<polygon style="fill:#FFC3BD;" points="276.725,408.69 267.684,409.544 265.822,388.732 274.863,387.877 			"/>
			<polygon style="fill:#FFC3BD;" points="347.588,377.921 341.021,384.087 326.843,368.505 333.41,362.338 			"/>
			<path style="fill:#263238;" d="M339.221,382.485l4.935-8.892c0.18-0.324,0.55-0.461,0.891-0.332l7.598,2.892
				c0.788,0.3,1.13,1.311,0.703,2.05c-1.774,3.07-2.785,4.463-4.956,8.374c-1.335,2.406-3.935,7.923-5.779,11.246
				c-1.803,3.249-5.227,1.676-4.757,0.127c2.109-6.943,1.712-10.808,1.117-13.872C338.866,383.525,338.959,382.958,339.221,382.485z
				"/>
			<path style="fill:#263238;" d="M266.483,406.842l10.739,0c0.391,0,0.743,0.271,0.848,0.653l2.335,8.496
				c0.242,0.881-0.407,1.692-1.31,1.7c-3.784,0.034-5.578,0.018-10.301,0.018c-2.905,0-10.422,0-14.434,0
				c-3.924,0-4.745-3.967-3.121-4.327c7.28-1.611,11.477-3.833,13.723-5.952C265.367,407.048,265.911,406.842,266.483,406.842z"/>
			<polygon style="opacity:0.2;" points="265.824,388.737 266.782,399.465 275.904,399.465 274.869,387.882 			"/>
			<polygon style="opacity:0.2;" points="333.415,362.341 326.845,368.51 334.157,376.539 340.727,370.37 			"/>
			<path style="fill:#263238;" d="M243.142,177.682c0.599,6.798,2.861,20.287,9.617,47.027l36.628-3.168
				c-1.76-13.729-2.587-22.62,0.834-48.53c0.492-3.729-2.278-7.115-6.034-7.322c-2.602-0.143-5.678-0.225-8.769-0.107
				c-6.189,0.236-11.256,0.476-16.632,1.439c-3.318,0.594-6.878,1.462-9.727,2.216C245.29,170.236,242.8,173.798,243.142,177.682z"
				/>
			<path style="fill:#FFC3BD;" d="M272.151,146.997c-0.586,5.442-0.785,15.338,3.268,18.585c0,0,0.324,5.622-11.096,7.459
				c-8.017-0.683-5.536-6.02-5.536-6.02c5.844-1.941,5.307-6.356,3.908-10.424L272.151,146.997z"/>
			<path style="opacity:0.2;" d="M268.296,150.914l-5.597,5.679c0.335,0.963,0.615,1.944,0.768,2.908
				c2.251-0.527,5.51-2.866,5.546-5.274C269.031,153.026,268.538,151.452,268.296,150.914z"/>
			<path style="fill:#FFC3BD;" d="M276.939,138.494c-2.27,8.692-3.045,12.42-8.377,16.063c-8.02,5.479-18.2,0.79-18.573-8.406
				c-0.336-8.277,3.433-21.102,12.734-22.91C271.886,121.459,279.209,129.802,276.939,138.494z"/>
			<path style="fill:#263238;" d="M257.923,122.546c-3.691,3.708,4.021,13.074,16.816,21.34c9.907-6.001,6.512-14.04,1.981-18.597
				C272.279,120.82,262.147,118.302,257.923,122.546z"/>
			<path style="fill:#263238;" d="M261.375,132.18c-0.065,0-0.13-0.025-0.18-0.075c-4.08-4.073-5.669-7.162-4.725-9.182
				c1.391-2.973,7.665-2.437,7.931-2.413c0.14,0.013,0.244,0.137,0.231,0.277c-0.013,0.14-0.131,0.242-0.277,0.231
				c-0.062-0.005-6.185-0.528-7.424,2.121c-0.832,1.78,0.767,4.755,4.624,8.605c0.1,0.099,0.1,0.261,0,0.36
				C261.506,132.155,261.441,132.18,261.375,132.18z"/>
			<path style="fill:#FFC3BD;" d="M277.656,146.341c-0.855,1.655-2.394,2.76-3.86,3.201c-2.205,0.664-3.352-1.297-2.778-3.402
				c0.517-1.894,2.287-4.522,4.518-4.264C277.735,142.13,278.634,144.449,277.656,146.341z"/>
			<path style="fill:#263238;" d="M252.759,224.709c0,0-10.579,54.782-2.307,93.431c5.541,25.885,12.646,78.215,12.646,78.215
				l15.623-0.402c0,0-4.062-54.875-7.189-76.456c-5.349-36.915,8.049-97.108,8.049-97.108L252.759,224.709z"/>
			<path style="opacity:0.2;" d="M267.049,235.779l7.812,12.32c-1.987,12.775-3.965,28.755-4.469,44.13
				C259.406,272.562,264.607,246.191,267.049,235.779z"/>
			<polygon style="fill:#407BFF;" points="261.723,396.96 280.13,396.91 280.074,390.746 260.582,390.492 			"/>
			<path style="fill:#263238;" d="M260.768,224.126c0,0,7.27,58.138,23.029,89.879c12.729,25.637,46.695,62.132,46.695,62.132
				l8.685-8.947c0,0-22.943-39.663-32.403-56.693c-23.197-41.758-4.239-73.624-17.387-88.956L260.768,224.126z"/>
			<polygon style="fill:#407BFF;" points="329.612,377.333 340.819,366.409 337.102,361.35 325.217,373.213 			"/>
			<path style="fill:#FFFFFF;" d="M289.75,219.344l1.935,3.136c0.15,0.243-0.129,0.529-0.552,0.565l-38.413,3.322
				c-0.33,0.029-0.618-0.11-0.656-0.315l-0.614-3.25c-0.043-0.225,0.227-0.442,0.588-0.473l37.091-3.208
				C289.402,219.097,289.653,219.188,289.75,219.344z"/>
			<path style="fill:#263238;" d="M285.127,223.923l0.993-0.086c0.198-0.017,0.34-0.132,0.315-0.256l-0.834-4.219
				c-0.024-0.123-0.206-0.21-0.404-0.193l-0.993,0.086c-0.198,0.017-0.34,0.132-0.315,0.256l0.834,4.219
				C284.747,223.853,284.929,223.94,285.127,223.923z"/>
			<path style="fill:#263238;" d="M255.543,226.481l0.993-0.086c0.198-0.017,0.34-0.132,0.315-0.256l-0.834-4.219
				c-0.024-0.123-0.206-0.21-0.404-0.193l-0.993,0.086c-0.198,0.017-0.34,0.132-0.315,0.256l0.834,4.219
				C255.163,226.411,255.345,226.498,255.543,226.481z"/>
			<path style="fill:#263238;" d="M270.335,225.202l0.993-0.086c0.198-0.017,0.34-0.132,0.315-0.256l-0.834-4.219
				c-0.024-0.123-0.206-0.211-0.404-0.193l-0.993,0.086c-0.198,0.017-0.34,0.132-0.315,0.256l0.834,4.219
				C269.955,225.132,270.137,225.219,270.335,225.202z"/>
			<path style="fill:#263238;" d="M262.223,138.196c-0.141,0.716-0.635,1.223-1.103,1.131c-0.468-0.092-0.734-0.748-0.593-1.464
				c0.141-0.716,0.635-1.223,1.103-1.13C262.099,136.824,262.364,137.48,262.223,138.196z"/>
			<path style="fill:#263238;" d="M254.126,136.604c-0.141,0.716-0.635,1.223-1.103,1.13c-0.468-0.092-0.734-0.747-0.593-1.464
				c0.141-0.716,0.635-1.223,1.103-1.13C254.001,135.232,254.266,135.888,254.126,136.604z"/>
			<path style="fill:#263238;" d="M253.732,135.221l-1.623-0.834C252.108,134.386,252.727,135.904,253.732,135.221z"/>
			<path style="fill:#ED847E;" d="M256.909,138.39c0,0-1.822,2.845-3.453,4.07c0.772,1.069,2.46,0.981,2.46,0.981L256.909,138.39z"
				/>
			<path style="fill:#263238;" d="M259.229,146.857c2.537,0,4.011-1.48,4.082-1.553c0.069-0.071,0.067-0.183-0.003-0.252
				c-0.069-0.068-0.182-0.068-0.252,0.003c-0.019,0.019-1.944,1.941-5.096,1.319c-0.1-0.021-0.19,0.044-0.209,0.14
				c-0.019,0.097,0.044,0.191,0.14,0.209C258.364,146.816,258.811,146.857,259.229,146.857z"/>
			<path style="fill:#263238;" d="M267.088,135.418c0.063,0,0.126-0.017,0.184-0.052c0.168-0.102,0.222-0.321,0.12-0.49
				c-1.207-1.997-3.147-2.085-3.229-2.087c-0.208,0.008-0.36,0.147-0.367,0.343c-0.008,0.196,0.145,0.361,0.342,0.37
				c0.067,0.003,1.643,0.088,2.644,1.744C266.849,135.357,266.967,135.418,267.088,135.418z"/>
			<path style="fill:#263238;" d="M251.877,132.549c0.059,0,0.118-0.015,0.173-0.046c1.705-0.952,3.146-0.215,3.16-0.208
				c0.175,0.092,0.39,0.024,0.481-0.15c0.091-0.174,0.025-0.39-0.15-0.481c-0.073-0.039-1.802-0.922-3.839,0.216
				c-0.172,0.096-0.233,0.313-0.138,0.485C251.631,132.483,251.752,132.549,251.877,132.549z"/>
			<path style="fill:#407BFF;" d="M274.861,164.561c0,0-1.497,9.654-1.367,25.393c0.085,10.404-2.56,56.953,11.669,111.641
				c22.752,0.128,32.829,6.68,32.829,6.68s-22.062-89.035-24.855-135.056c-0.278-4.586-3.918-8.235-8.503-8.523
				C280.113,164.412,274.861,164.561,274.861,164.561z"/>
			<path style="fill:#FFFFFF;" d="M297.865,240.399c-0.06,0-0.122-0.016-0.178-0.049c-6.393-3.814-12.936-14.512-13.211-14.965
				c-0.1-0.164-0.047-0.379,0.117-0.478c0.166-0.1,0.378-0.047,0.478,0.117c0.066,0.11,6.73,11.003,12.973,14.729
				c0.165,0.099,0.219,0.312,0.121,0.477C298.099,240.339,297.983,240.399,297.865,240.399z"/>
			<path style="opacity:0.2;" d="M294.394,187.052l-7.388-6.481c0,0,3.23,13.981,9.752,24.1
				C295.831,198.557,295.016,192.636,294.394,187.052z"/>
			<path style="fill:#407BFF;" d="M257.669,166.332c0,0-0.814,9.638-0.814,34.428c0,23.92,2.953,58.375-1.59,101.755
				c-7.36,1.812-11.436,7.182-11.436,7.182s6.139-78.756-0.915-132.126c-0.609-4.607,2.803-8.788,7.37-9.646
				C254.723,167.09,257.669,166.332,257.669,166.332z"/>
			<g>
				<g>
					
						<rect x="305.42" y="240.545" transform="matrix(0.9678 -0.2519 0.2519 0.9678 -51.3941 87.6842)" style="fill:#407BFF;" width="22.768" height="8.093"/>
					
						<rect x="305.875" y="245.612" transform="matrix(0.9678 -0.2519 0.2519 0.9678 -51.8207 87.8568)" style="opacity:0.8;fill:#FFFFFF;" width="22.768" height="1.457"/>
				</g>
				
					<rect x="307.71" y="238.545" transform="matrix(0.9788 -0.2048 0.2048 0.9788 -43.1095 70.1695)" style="fill:#263238;" width="19.315" height="9.523"/>
			</g>
			<path style="fill:#FFC3BD;" d="M309.423,234.854l-1.561,7.932l7.485-1.89c0,0,0.508-5.455-2.569-7.62L309.423,234.854z"/>
			<polygon style="fill:#FFC3BD;" points="309.765,246.921 317.292,246.188 315.346,240.896 307.861,242.786 			"/>
			<path style="fill:#407BFF;" d="M290.388,167.343c2.195,2.265,4.143,4.498,6.118,6.834c1.944,2.337,3.859,4.703,5.676,7.187
				c1.833,2.475,3.605,5.006,5.274,7.719c0.833,1.372,1.665,2.723,2.421,4.23l0.576,1.106l0.55,1.185l0.54,1.193
				c0.179,0.391,0.363,0.9,0.538,1.345c0.653,1.796,1.06,3.429,1.394,5.046c0.332,1.609,0.596,3.18,0.817,4.732
				c0.427,3.104,0.68,6.155,0.854,9.189c0.32,6.078,0.314,12.047-0.121,18.114l-7.057,0.374c-1.137-5.706-2.205-11.49-3.394-17.109
				c-0.59-2.813-1.228-5.594-1.931-8.278c-0.346-1.341-0.725-2.65-1.132-3.895c-0.413-1.234-0.846-2.434-1.296-3.374
				c-0.125-0.228-0.197-0.412-0.354-0.677l-0.455-0.782l-0.456-0.785l-0.529-0.81c-0.678-1.07-1.476-2.18-2.25-3.278
				c-1.591-2.202-3.36-4.393-5.127-6.587c-3.561-4.353-7.413-8.742-11.09-12.951L290.388,167.343z"/>
			<path style="fill:#407BFF;" d="M337.49,387.265c0.117,0,0.233-0.02,0.35-0.059c1.074-0.362,1.779-2.35,2.103-3.502
				c0.019-0.069-0.004-0.142-0.059-0.187c-0.055-0.044-0.132-0.052-0.195-0.019c-0.327,0.171-3.196,1.705-3.29,2.838
				c-0.014,0.173,0.028,0.423,0.306,0.633C336.964,387.166,337.228,387.265,337.49,387.265z M339.476,384.02
				c-0.498,1.59-1.141,2.643-1.751,2.849c-0.264,0.088-0.526,0.028-0.807-0.184c-0.162-0.122-0.172-0.241-0.165-0.32
				C336.811,385.67,338.492,384.578,339.476,384.02z"/>
			<path style="fill:#407BFF;" d="M337.047,384.468c1.019,0,2.268-0.325,2.817-0.66c0.054-0.033,0.086-0.093,0.085-0.156
				c-0.001-0.063-0.037-0.121-0.092-0.152c-0.096-0.053-2.369-1.303-3.591-0.868c-0.319,0.112-0.545,0.326-0.67,0.634
				c-0.195,0.48,0.018,0.758,0.163,0.88C336.03,384.377,336.506,384.468,337.047,384.468z M339.378,383.655
				c-0.972,0.414-2.857,0.669-3.389,0.22c-0.088-0.075-0.176-0.197-0.063-0.474c0.086-0.212,0.236-0.354,0.458-0.432
				C337.218,382.671,338.732,383.337,339.378,383.655z"/>
			<path style="fill:#407BFF;" d="M261.718,408.58c1.032,0,2.153-0.199,2.932-0.372c0.074-0.017,0.13-0.079,0.139-0.154
				c0.008-0.076-0.032-0.148-0.102-0.181c-0.441-0.208-4.337-2.008-5.319-1.344c-0.125,0.084-0.271,0.249-0.254,0.551
				c0.024,0.419,0.202,0.757,0.53,1.005C260.132,408.453,260.896,408.58,261.718,408.58z M264.037,407.969
				c-1.157,0.217-3.296,0.498-4.177-0.168c-0.244-0.185-0.371-0.427-0.39-0.741c-0.008-0.145,0.048-0.203,0.098-0.236
				C260.116,406.451,262.42,407.257,264.037,407.969z"/>
			<path style="fill:#407BFF;" d="M264.611,408.212c0.041,0,0.083-0.015,0.115-0.042c0.051-0.043,0.073-0.111,0.059-0.176
				c-0.037-0.164-0.921-4.006-3.036-3.761c-0.529,0.063-0.674,0.326-0.703,0.535c-0.132,0.978,2.324,2.95,3.497,3.43
				C264.565,408.207,264.588,408.212,264.611,408.212z M261.94,404.578c1.351,0,2.138,2.236,2.399,3.131
				c-1.269-0.665-3.025-2.267-2.94-2.893c0.006-0.046,0.025-0.186,0.392-0.23C261.842,404.581,261.892,404.578,261.94,404.578z"/>
			<path style="fill:#263238;" d="M261.83,136.813l-1.623-0.834C260.206,135.978,260.825,137.496,261.83,136.813z"/>
			<g>
				<path style="fill:#407BFF;" d="M277.531,164.317l-2.777,0.071c-0.158,0.004-0.292,0.114-0.323,0.269
					c-0.348,1.753-2.216,12.28-1,31.201c1.189-5.52,4.097-17.196,5.328-19.744c-1.061-0.807-2.76-2.165-2.76-2.165l3.117-1.996
					l-1.243-7.353C277.845,164.433,277.699,164.312,277.531,164.317z"/>
				<path style="opacity:0.2;fill:#FFFFFF;" d="M277.531,164.317l-2.777,0.071c-0.158,0.004-0.292,0.114-0.323,0.269
					c-0.348,1.753-2.216,12.28-1,31.201c1.189-5.52,4.097-17.196,5.328-19.744c-1.061-0.807-2.76-2.165-2.76-2.165l3.117-1.996
					l-1.243-7.353C277.845,164.433,277.699,164.312,277.531,164.317z"/>
			</g>
			<g>
				<path style="fill:#407BFF;" d="M254.623,166.619l3.292-0.574c0,0,0.287,9.403-1.051,30.208
					c-1.189-5.52-3.666-16.956-3.806-20.14c1.062-0.807,2.76-2.165,2.76-2.165l-3.117-1.996L254.623,166.619z"/>
				<path style="opacity:0.2;fill:#FFFFFF;" d="M254.623,166.619l3.292-0.574c0,0,0.287,9.403-1.051,30.208
					c-1.189-5.52-3.666-16.956-3.806-20.14c1.062-0.807,2.76-2.165,2.76-2.165l-3.117-1.996L254.623,166.619z"/>
			</g>
		</g>
		<g>
			<path style="fill:#263238;" d="M212.153,295.527h-37.707c-9.054,0-16.462,7.408-16.462,16.462v79.421
				c0,9.054,7.408,16.462,16.462,16.462h37.707c9.054,0,16.462-7.408,16.462-16.462v-79.421
				C228.615,302.935,221.207,295.527,212.153,295.527z"/>
			<path style="fill:#263238;" d="M198.273,222.613c5.135,0,9.313,4.178,9.313,9.313v107.358c0,5.135-4.178,9.312-9.313,9.312
				h-9.947c-5.135,0-9.313-4.177-9.313-9.312V231.926c0-5.135,4.178-9.313,9.313-9.313H198.273 M198.273,220.817h-9.947
				c-6.11,0-11.109,4.999-11.109,11.109v107.358c0,6.11,4.999,11.109,11.109,11.109h9.947c6.11,0,11.109-4.999,11.109-11.109
				V231.926C209.381,225.816,204.382,220.817,198.273,220.817L198.273,220.817z"/>
			<circle style="fill:#263238;" cx="214.782" cy="409.144" r="4.191"/>
			<path style="fill:#263238;" d="M204.226,409.144c0,2.315-1.877,4.191-4.191,4.191c-2.315,0-4.191-1.877-4.191-4.191
				c0-2.315,1.876-4.191,4.191-4.191C202.349,404.952,204.226,406.829,204.226,409.144z"/>
			<path style="fill:#263238;" d="M180.11,409.144c0,2.315-1.876,4.191-4.191,4.191c-2.315,0-4.191-1.877-4.191-4.191
				c0-2.315,1.876-4.191,4.191-4.191C178.234,404.952,180.11,406.829,180.11,409.144z"/>
			<circle style="fill:#263238;" cx="161.171" cy="409.144" r="4.191"/>
			<g>
				<path style="fill:#407BFF;" d="M201.508,295.527h-37.707c-9.054,0-16.462,7.408-16.462,16.462v79.421
					c0,9.054,7.408,16.462,16.462,16.462h37.707c9.054,0,16.462-7.408,16.462-16.462v-79.421
					C217.97,302.935,210.562,295.527,201.508,295.527z"/>
				<path style="opacity:0.2;fill:#FFFFFF;" d="M201.508,295.527h-37.707c-9.054,0-16.462,7.408-16.462,16.462v79.421
					c0,9.054,7.408,16.462,16.462,16.462h37.707c9.054,0,16.462-7.408,16.462-16.462v-79.421
					C217.97,302.935,210.562,295.527,201.508,295.527z"/>
			</g>
			<path style="fill:#407BFF;" d="M194.07,305.994h-30.681c-7.367,0-13.394,6.027-13.394,13.394v64.622
				c0,7.367,6.027,13.394,13.394,13.394h30.681c7.367,0,13.394-6.027,13.394-13.394v-64.622
				C207.464,312.022,201.436,305.994,194.07,305.994z"/>
			<path style="fill:#FFFFFF;" d="M159.726,390.786c-2.104,0-3.816-1.712-3.816-3.816v-70.541c0-2.104,1.712-3.816,3.816-3.816
				c2.104,0,3.816,1.712,3.816,3.816v70.541C163.542,389.074,161.83,390.786,159.726,390.786z M159.726,313.511
				c-1.609,0-2.918,1.309-2.918,2.918v70.541c0,1.609,1.309,2.918,2.918,2.918s2.917-1.309,2.917-2.918v-70.541
				C162.644,314.82,161.335,313.511,159.726,313.511z"/>
			<path style="fill:#FFFFFF;" d="M197.861,390.786c-2.104,0-3.816-1.712-3.816-3.816v-70.541c0-2.104,1.712-3.816,3.816-3.816
				c2.105,0,3.816,1.712,3.816,3.816v70.541C201.677,389.074,199.965,390.786,197.861,390.786z M197.861,313.511
				c-1.609,0-2.917,1.309-2.917,2.918v70.541c0,1.609,1.309,2.918,2.917,2.918c1.609,0,2.918-1.309,2.918-2.918v-70.541
				C200.779,314.82,199.47,313.511,197.861,313.511z"/>
			<path style="fill:#FFFFFF;" d="M185.149,390.786c-2.104,0-3.816-1.712-3.816-3.816v-70.541c0-2.104,1.712-3.816,3.816-3.816
				s3.816,1.712,3.816,3.816v70.541C188.965,389.074,187.253,390.786,185.149,390.786z M185.149,313.511
				c-1.609,0-2.917,1.309-2.917,2.918v70.541c0,1.609,1.309,2.918,2.917,2.918s2.917-1.309,2.917-2.918v-70.541
				C188.067,314.82,186.758,313.511,185.149,313.511z"/>
			<path style="fill:#FFFFFF;" d="M172.438,390.786c-2.104,0-3.816-1.712-3.816-3.816v-70.541c0-2.104,1.712-3.816,3.816-3.816
				s3.816,1.712,3.816,3.816v70.541C176.253,389.074,174.542,390.786,172.438,390.786z M172.438,313.511
				c-1.609,0-2.917,1.309-2.917,2.918v70.541c0,1.609,1.309,2.918,2.917,2.918s2.917-1.309,2.917-2.918v-70.541
				C175.355,314.82,174.046,313.511,172.438,313.511z"/>
		</g>
	</g>
</g>
</svg>
