<svg width="40" height="40" viewBox="0 0 40 40" fill="none" xmlns="http://www.w3.org/2000/svg">
<rect width="40" height="40" rx="12" fill="#1565C0"/>
<path d="M27.8584 10.9989C29.2777 10.1794 32.4949 10.135 33.3976 11.8019C34.3261 13.5165 32.5789 16.2757 31.1596 17.0952L26.3205 19.889L26.6862 30.6747C26.7076 31.2876 26.425 31.8321 25.9477 32.1076L23.6154 33.4542C23.1755 33.7082 22.5928 33.4069 22.4501 32.8516L20.058 23.5047L15.7917 25.9678L15.4844 29.7463C15.4631 30.0087 15.3258 30.238 15.1183 30.3578L13.3752 31.3641C13.0515 31.551 12.6317 31.3995 12.4331 31.0328C12.3996 30.9709 12.3744 30.9042 12.3533 30.8351L10.821 24.8365L6.67422 20.3475C6.62409 20.2952 6.58641 20.2357 6.55288 20.1737C6.35172 19.8022 6.45327 19.356 6.77283 19.1715L8.51588 18.1652C8.72338 18.0454 8.98448 18.0446 9.21215 18.1633L12.4905 19.8715L16.761 17.406L10.3018 10.4072C9.91421 9.99325 9.97071 9.32296 10.4106 9.06897L12.743 7.72239C13.2202 7.44684 13.8201 7.48815 14.3119 7.82308L23.0194 13.7927L27.8584 10.9989Z" stroke="white" stroke-opacity="0.8" stroke-width="2.34375"/>
</svg>
